<svg viewBox="0 0 330 200" xmlns="http://www.w3.org/2000/svg"><g><g><g><g><g><line x1="58" y1="178" x2="53" y2="178" style="visibility: inherit;" fill="rgb(0, 0, 0)" stroke="rgb(204, 204, 204)" stroke-width="1px"></line><line x1="58" y1="161.8181818181818" x2="53" y2="161.8181818181818" style="visibility: inherit;" fill="rgb(0, 0, 0)" stroke="rgb(204, 204, 204)" stroke-width="1px"></line><line x1="58" y1="145.63636363636363" x2="53" y2="145.63636363636363" style="visibility: inherit;" fill="rgb(0, 0, 0)" stroke="rgb(204, 204, 204)" stroke-width="1px"></line><line x1="58" y1="129.45454545454544" x2="53" y2="129.45454545454544" style="visibility: inherit;" fill="rgb(0, 0, 0)" stroke="rgb(204, 204, 204)" stroke-width="1px"></line><line x1="58" y1="113.27272727272727" x2="53" y2="113.27272727272727" style="visibility: inherit;" fill="rgb(0, 0, 0)" stroke="rgb(204, 204, 204)" stroke-width="1px"></line><line x1="58" y1="97.0909090909091" x2="53" y2="97.0909090909091" style="visibility: inherit;" fill="rgb(0, 0, 0)" stroke="rgb(204, 204, 204)" stroke-width="1px"></line><line x1="58" y1="80.90909090909092" x2="53" y2="80.90909090909092" style="visibility: inherit;" fill="rgb(0, 0, 0)" stroke="rgb(204, 204, 204)" stroke-width="1px"></line><line x1="58" y1="64.72727272727275" x2="53" y2="64.72727272727275" style="visibility: inherit;" fill="rgb(0, 0, 0)" stroke="rgb(204, 204, 204)" stroke-width="1px"></line><line x1="58" y1="48.54545454545456" x2="53" y2="48.54545454545456" style="visibility: inherit;" fill="rgb(0, 0, 0)" stroke="rgb(204, 204, 204)" stroke-width="1px"></line><line x1="58" y1="32.363636363636374" x2="53" y2="32.363636363636374" style="visibility: inherit;" fill="rgb(0, 0, 0)" stroke="rgb(204, 204, 204)" stroke-width="1px"></line><line x1="58" y1="16.181818181818187" x2="53" y2="16.181818181818187" style="visibility: inherit;" fill="rgb(0, 0, 0)" stroke="rgb(204, 204, 204)" stroke-width="1px"></line><line x1="58" y1="0" x2="53" y2="0" style="visibility: inherit;" fill="rgb(0, 0, 0)" stroke="rgb(204, 204, 204)" stroke-width="1px"></line></g><g transform="translate(48, 0)"><text x="0" y="178" dx="0em" dy="0.3em" style="text-anchor: end; visibility: hidden; font-family: &quot;Helvetica Neue&quot;, sans-serif; font-size: 12px; font-weight: 200;" fill="rgb(50, 49, 63)" stroke="none" stroke-width="1px">-0.1</text><text x="0" y="161.8181818181818" dx="0em" dy="0.3em" style="text-anchor: end; visibility: inherit; font-family: &quot;Helvetica Neue&quot;, sans-serif; font-size: 12px; font-weight: 200;" fill="rgb(50, 49, 63)" stroke="none" stroke-width="1px">0</text><text x="0" y="145.63636363636363" dx="0em" dy="0.3em" style="text-anchor: end; visibility: hidden; font-family: &quot;Helvetica Neue&quot;, sans-serif; font-size: 12px; font-weight: 200;" fill="rgb(50, 49, 63)" stroke="none" stroke-width="1px">0.1</text><text x="0" y="129.45454545454544" dx="0em" dy="0.3em" style="text-anchor: end; visibility: inherit; font-family: &quot;Helvetica Neue&quot;, sans-serif; font-size: 12px; font-weight: 200;" fill="rgb(50, 49, 63)" stroke="none" stroke-width="1px">0.2</text><text x="0" y="113.27272727272727" dx="0em" dy="0.3em" style="text-anchor: end; visibility: hidden; font-family: &quot;Helvetica Neue&quot;, sans-serif; font-size: 12px; font-weight: 200;" fill="rgb(50, 49, 63)" stroke="none" stroke-width="1px">0.3</text><text x="0" y="97.0909090909091" dx="0em" dy="0.3em" style="text-anchor: end; visibility: inherit; font-family: &quot;Helvetica Neue&quot;, sans-serif; font-size: 12px; font-weight: 200;" fill="rgb(50, 49, 63)" stroke="none" stroke-width="1px">0.4</text><text x="0" y="80.90909090909092" dx="0em" dy="0.3em" style="text-anchor: end; visibility: hidden; font-family: &quot;Helvetica Neue&quot;, sans-serif; font-size: 12px; font-weight: 200;" fill="rgb(50, 49, 63)" stroke="none" stroke-width="1px">0.5</text><text x="0" y="64.72727272727275" dx="0em" dy="0.3em" style="text-anchor: end; visibility: inherit; font-family: &quot;Helvetica Neue&quot;, sans-serif; font-size: 12px; font-weight: 200;" fill="rgb(50, 49, 63)" stroke="none" stroke-width="1px">0.6</text><text x="0" y="48.54545454545456" dx="0em" dy="0.3em" style="text-anchor: end; visibility: hidden; font-family: &quot;Helvetica Neue&quot;, sans-serif; font-size: 12px; font-weight: 200;" fill="rgb(50, 49, 63)" stroke="none" stroke-width="1px">0.7</text><text x="0" y="32.363636363636374" dx="0em" dy="0.3em" style="text-anchor: end; visibility: inherit; font-family: &quot;Helvetica Neue&quot;, sans-serif; font-size: 12px; font-weight: 200;" fill="rgb(50, 49, 63)" stroke="none" stroke-width="1px">0.8</text><text x="0" y="16.181818181818187" dx="0em" dy="0.3em" style="text-anchor: end; visibility: hidden; font-family: &quot;Helvetica Neue&quot;, sans-serif; font-size: 12px; font-weight: 200;" fill="rgb(50, 49, 63)" stroke="none" stroke-width="1px">0.9</text><text x="0" y="0" dx="0em" dy="0.3em" style="text-anchor: end; visibility: hidden; font-family: &quot;Helvetica Neue&quot;, sans-serif; font-size: 12px; font-weight: 200;" fill="rgb(50, 49, 63)" stroke="none" stroke-width="1px">1</text></g><line x1="58" y1="0" x2="58" y2="178" fill="rgb(0, 0, 0)" stroke="rgb(204, 204, 204)" stroke-width="1px"></line></g></g><g transform="translate(58, 0)" clip-path="url(#clip_0)"><clipPath id="clip_0"><rect width="272" height="178"></rect></clipPath><g><g><g><line x1="0" y1="0" x2="0" y2="178" fill="rgb(0, 0, 0)" stroke="rgb(60, 60, 60)" stroke-width="1px" opacity="0.25"></line><line x1="22.666666666666664" y1="0" x2="22.666666666666664" y2="178" fill="rgb(0, 0, 0)" stroke="rgb(60, 60, 60)" stroke-width="1px" opacity="0.25"></line><line x1="45.33333333333333" y1="0" x2="45.33333333333333" y2="178" fill="rgb(0, 0, 0)" stroke="rgb(60, 60, 60)" stroke-width="1px" opacity="0.25"></line><line x1="68" y1="0" x2="68" y2="178" fill="rgb(0, 0, 0)" stroke="rgb(60, 60, 60)" stroke-width="1px" opacity="0.25"></line><line x1="90.66666666666666" y1="0" x2="90.66666666666666" y2="178" fill="rgb(0, 0, 0)" stroke="rgb(60, 60, 60)" stroke-width="1px" opacity="0.25"></line><line x1="113.33333333333334" y1="0" x2="113.33333333333334" y2="178" fill="rgb(0, 0, 0)" stroke="rgb(60, 60, 60)" stroke-width="1px" opacity="0.25"></line><line x1="136" y1="0" x2="136" y2="178" fill="rgb(0, 0, 0)" stroke="rgb(60, 60, 60)" stroke-width="1px" opacity="0.25"></line><line x1="158.66666666666669" y1="0" x2="158.66666666666669" y2="178" fill="rgb(0, 0, 0)" stroke="rgb(60, 60, 60)" stroke-width="1px" opacity="0.25"></line><line x1="181.33333333333331" y1="0" x2="181.33333333333331" y2="178" fill="rgb(0, 0, 0)" stroke="rgb(60, 60, 60)" stroke-width="1px" opacity="0.25"></line><line x1="204" y1="0" x2="204" y2="178" fill="rgb(0, 0, 0)" stroke="rgb(60, 60, 60)" stroke-width="1px" opacity="0.25"></line><line x1="226.66666666666669" y1="0" x2="226.66666666666669" y2="178" fill="rgb(0, 0, 0)" stroke="rgb(60, 60, 60)" stroke-width="1px" opacity="0.25"></line><line x1="249.33333333333331" y1="0" x2="249.33333333333331" y2="178" fill="rgb(0, 0, 0)" stroke="rgb(60, 60, 60)" stroke-width="1px" opacity="0.25"></line><line x1="272" y1="0" x2="272" y2="178" fill="rgb(0, 0, 0)" stroke="rgb(60, 60, 60)" stroke-width="1px" opacity="0.25"></line></g><g><line x1="0" y1="178" x2="272" y2="178" fill="rgb(0, 0, 0)" stroke="rgb(60, 60, 60)" stroke-width="1px" opacity="0.25"></line><line x1="0" y1="161.8181818181818" x2="272" y2="161.8181818181818" fill="rgb(0, 0, 0)" stroke="rgb(60, 60, 60)" stroke-width="1px" opacity="0.25"></line><line x1="0" y1="145.63636363636363" x2="272" y2="145.63636363636363" fill="rgb(0, 0, 0)" stroke="rgb(60, 60, 60)" stroke-width="1px" opacity="0.25"></line><line x1="0" y1="129.45454545454544" x2="272" y2="129.45454545454544" fill="rgb(0, 0, 0)" stroke="rgb(60, 60, 60)" stroke-width="1px" opacity="0.25"></line><line x1="0" y1="113.27272727272727" x2="272" y2="113.27272727272727" fill="rgb(0, 0, 0)" stroke="rgb(60, 60, 60)" stroke-width="1px" opacity="0.25"></line><line x1="0" y1="97.0909090909091" x2="272" y2="97.0909090909091" fill="rgb(0, 0, 0)" stroke="rgb(60, 60, 60)" stroke-width="1px" opacity="0.25"></line><line x1="0" y1="80.90909090909092" x2="272" y2="80.90909090909092" fill="rgb(0, 0, 0)" stroke="rgb(60, 60, 60)" stroke-width="1px" opacity="0.25"></line><line x1="0" y1="64.72727272727275" x2="272" y2="64.72727272727275" fill="rgb(0, 0, 0)" stroke="rgb(60, 60, 60)" stroke-width="1px" opacity="0.25"></line><line x1="0" y1="48.54545454545456" x2="272" y2="48.54545454545456" fill="rgb(0, 0, 0)" stroke="rgb(60, 60, 60)" stroke-width="1px" opacity="0.25"></line><line x1="0" y1="32.363636363636374" x2="272" y2="32.363636363636374" fill="rgb(0, 0, 0)" stroke="rgb(60, 60, 60)" stroke-width="1px" opacity="0.25"></line><line x1="0" y1="16.181818181818187" x2="272" y2="16.181818181818187" fill="rgb(0, 0, 0)" stroke="rgb(60, 60, 60)" stroke-width="1px" opacity="0.25"></line><line x1="0" y1="0" x2="272" y2="0" fill="rgb(0, 0, 0)" stroke="rgb(60, 60, 60)" stroke-width="1px" opacity="0.25"></line></g></g></g><g><g><line x1="0" y1="161.8181818181818" x2="272" y2="161.8181818181818" fill="rgb(0, 0, 0)" stroke="rgb(153, 153, 153)" stroke-width="1.5px"></line></g></g><g><g><line x1="22.666666666666664" y1="0" x2="22.666666666666664" y2="178" fill="rgb(0, 0, 0)" stroke="rgb(153, 153, 153)" stroke-width="1.5px"></line></g></g><g><g><g><g><g><path stroke="rgb(255, 112, 67)" stroke-width="2px" d="M22.988533333333333,-2.897362897037766L23.0928,13.760734784571241L23.42373333333333,36.085812893359645L23.704800000000002,21.6243546960346L23.727466666666665,30.384726349546014L23.822666666666667,21.182804584030947L23.904266666666665,39.26635589021325L24.062933333333334,34.19942786435533L24.072,34.92805911576713L24.108266666666665,28.810193801947378L24.815466666666666,31.237427080818662L25.096533333333333,40.04601268382862L25.29146666666667,52.19141424912837L25.3232,45.220300909754L25.5408,37.89951193400654L25.599733333333333,38.938814631080334L25.70853333333333,36.08460519441553L25.903466666666667,16.35625472763752L25.939733333333333,18.375927983396934L26.22533333333333,34.784438540070056L26.3024,30.94999432437723L26.3296,12.986269383029224L26.456533333333333,20.242310447136532L27.068533333333335,24.452506490684414L27.263466666666666,26.442504885927775L27.4992,39.46776766184877L27.671466666666664,35.82240100657464L28.016,33.41601779988093L28.3832,25.936185560018913L28.63253333333333,32.8748249274243L28.646133333333335,38.09419080276598L28.709600000000002,49.224296136207556L28.727733333333333,-19.534121689756688L28.945333333333334,-14.811061101291159L28.977066666666666,3.997551457431399L29.17653333333333,-5.272213882501347L29.31253333333333,1.3351225713393262L29.570933333333333,3.658635697731711L29.7024,12.950098354122446L29.774933333333333,2.3037555287623377L29.847466666666666,-6.350011810862696L30.332533333333334,3.3306189555314916L30.52746666666667,-5.085209598320034L30.541066666666666,1.1154097055948284L31.026133333333334,-0.5747888571595752L31.175733333333334,-5.387968168385328L31.357066666666668,8.422083150205708L31.43413333333333,8.064771229538223L31.493066666666667,8.596468463793144L31.896533333333334,16.32775015441132L32.168533333333336,31.08577670558563L32.581066666666665,42.09953980064378L32.635466666666666,50.074873144291416L32.78053333333333,46.84332727971267L32.80773333333333,53.883851590704L32.92106666666667,60.11823905882355L33.12506666666666,67.15551405990608L33.4968,53.62562006619227L33.70986666666667,52.86869673564931L33.78693333333334,58.62509031457468L33.796,62.122873465034374L33.818666666666665,66.32881970827923L33.932,79.06778557077139L33.93653333333333,78.48713218771654L33.99093333333333,60.94423888793621L34.0136,56.99957337454306L34.145066666666665,38.25951192120465L34.21306666666666,50.09862010410552L34.83866666666667,37.22110994948167L35.088,47.09993688151263L36.117066666666666,43.86129097870008L36.43893333333334,28.867660654697204L36.452533333333335,1.1812321502646057L36.71546666666667,17.27089137242865L36.99653333333333,21.29354840759413L37.30933333333333,50.896222888710156L37.3728,61.84499463667126L37.38186666666667,65.86866871526358L37.386399999999995,50.361975115058485L37.64933333333333,30.98058050852984L38.44266666666667,38.34759374412715L39.068266666666666,54.18028399049207L39.077333333333335,38.215567031604934L39.303999999999995,33.51130479845847L39.62586666666667,24.26830288334753L39.8616,32.75234038299038L39.9568,18.3014044552082L39.98853333333333,30.810813813206124L40.4736,35.05028775587746L40.60053333333333,18.87884127216219L40.727466666666665,16.658391442235768L40.9632,19.205560508083295L41.24426666666667,29.50196615402379L41.68853333333333,22.99860877719209L41.82906666666666,20.89721005190154L41.851733333333335,18.046361994372802L42.237066666666664,43.82113683808376L42.24613333333333,48.3316855617403L42.61333333333334,59.760034641723365L43.0304,44.432958807300764L43.10746666666667,56.597263926986315L43.202666666666666,60.801146185504194L43.81013333333333,57.905497947453085L43.828266666666664,64.8367836470119L43.864533333333334,69.69506897894811L44.37226666666666,76.94083967103252L44.43573333333333,77.76176631517335L44.608000000000004,73.07071329286879L44.662400000000005,64.33114891292998L44.852799999999995,74.0799105251192L45.20186666666666,75.5493881752705L45.56,49.61560961851623L45.56906666666667,51.27527599429034L45.81386666666666,63.71548345622385L45.940799999999996,56.20982193963452L46.4168,58.32095247191948L46.897333333333336,44.50983108093004L46.9608,53.721121848228975L47.23733333333333,65.86316449569775L47.82213333333333,76.72871280496676L48.41146666666666,74.83680877720171L48.610933333333335,78.21504788506216L48.99626666666667,40.9916038112153L49.086933333333334,47.64932631774059L49.25013333333333,53.15509474957881L49.281866666666666,39.20048165512836L49.44506666666666,47.5650829023233L49.54026666666667,48.01277662086065L49.821333333333335,45.97193173519227L49.912,46.159824615969455L50.4152,53.90943528027947L50.46053333333333,49.87713961651528L50.77333333333333,41.866666380577016L50.83226666666667,52.40090737256895L50.85946666666667,57.23182564683849L50.9184,54.61237917314283L51.1768,38.78332893939097L51.28106666666667,35.332490991356224L51.5712,32.83803139485147L52.224000000000004,43.77202646186646L52.468799999999995,56.56995039569122L52.60026666666666,56.70167985572307L52.84506666666667,70.64369375768185L53.02186666666666,60.996099606368574L53.03546666666667,66.0660910198553L53.089866666666666,68.39830569507913L53.2304,63.47935484371649L53.73813333333334,72.34144880107463L54.245866666666664,63.19853234889597L54.363733333333336,66.79191078631845L54.88053333333334,71.35919351186345L54.9168,63.86096467043373L55.102666666666664,73.77329174178273L55.519733333333335,61.83507562684565L55.809866666666665,71.65943157189709L56.02746666666666,66.8053358070687L56.13173333333334,64.3497443090731L56.44,74.81168711618616L56.48533333333333,79.95742676951473L56.49893333333333,73.95593509960058L56.56693333333333,77.14460516234242L56.71653333333333,79.98308625376225L57.541599999999995,83.84153601912803L57.845333333333336,79.02691739866388L57.97226666666667,78.44800086387816L58.017599999999995,74.71672012982425L58.17626666666667,70.19149224343856L58.89253333333333,67.46681842165242L59.232533333333336,68.69574915416001L59.74933333333334,69.08952158229813L59.935199999999995,65.84239765563333L60.44746666666667,49.17629858046553L60.57893333333334,48.913028035428084L60.6016,55.80278614068712L60.6424,56.444762060832744L61.0504,63.43415092379989L61.064,54.903253761455446L61.190933333333334,48.78923926151748L61.236266666666666,43.683615796873L61.65786666666666,47.823260079958175L61.812000000000005,49.469673176381804L62.084,34.436591090804455L62.64613333333333,29.872669341483288L62.9136,24.43663542842347L63.031466666666674,31.2007690121533L63.04506666666667,54.10050339670515L63.14026666666667,62.32221155756545L63.172000000000004,68.61683737328495L63.43493333333333,79.9570055235512L63.462133333333334,76.76770412770162L63.716,79.33626235740823L64.64533333333333,73.70453727970984L64.89920000000001,81.03587801891842L65.04426666666667,77.27830232924823L65.43866666666666,74.40269251260575L65.58826666666667,76.05004209579533L65.9464,81.31549911136874L65.97813333333333,60.29803616393153L66.03706666666666,61.21927699634921L66.30906666666667,63.911508675642665L66.44506666666666,60.51667713677375L66.54933333333334,57.7504261727281L66.63093333333333,68.67373152400485L67.28826666666667,75.77621700659653L67.5784,72.14657269025278L68.26293333333334,59.77445098657432L68.38080000000001,61.41667193818594L69.2512,47.07033379139335L69.28293333333333,57.365672055092816L69.7952,39.677256480958306L69.80879999999999,56.24845905180244L69.904,28.350380352318382L70.17146666666667,49.82623977027052L70.3664,51.55613025111441L70.75173333333333,61.23169348505809L70.89226666666667,55.07239713698324L70.96480000000001,66.14321298963736L71.04186666666666,62.72489050476986L71.2232,54.449020653389596L71.43173333333333,48.092337474153794L71.43626666666667,56.94031140339321L71.536,25.312363035273222L71.69466666666666,49.99316457156206L71.81253333333333,44.267119903825886L71.85333333333332,62.554186936622074L72.08906666666667,46.52601113755364L72.10266666666666,34.34646798222033L72.2568,38.21199852961652L72.27493333333334,36.443601275640134L72.3792,33.19134706132692L72.40639999999999,45.19332041122908L72.41546666666666,42.61347792775109L72.62400000000001,47.75204858158796L72.99573333333333,41.312256190301326L73.08186666666667,41.59792538471302L73.12266666666666,43.33264961885328L73.43093333333334,41.00062593845675L73.44,28.083562328224644L73.712,42.61163064630779L74.4328,60.11491699474047L74.67306666666667,69.69367187566479L74.76373333333333,77.5396787333576L74.90426666666666,84.48376902281679L74.94506666666668,53.377494688323324L75.02213333333333,74.44976075293818L75.0992,61.529872841089514L75.47093333333332,68.40945260584057L75.5752,68.57256812694762L75.63866666666667,81.58954847469872L75.97413333333333,79.13585643051128L76.49093333333333,75.4210978967811L76.92613333333333,78.55806151548038L76.94879999999999,87.3528995701991L77.112,77.04624371356611L77.25253333333333,78.13517249871128L77.69226666666667,76.0708063568512L77.81013333333334,70.01623016587294L77.82826666666668,67.16875887020359L77.9008,71.96633842703605L78.0912,74.2063062290094L78.38133333333334,64.08068237465704L78.39493333333334,73.08088553785353L78.46746666666667,72.47143319586719L78.90266666666668,84.99924575455506L79.14293333333333,80.73522942003484L80.10853333333333,78.28849847972698L80.23546666666667,71.40358186551843L80.71600000000001,62.58881732804019L81.0424,59.09714064533429L81.32346666666666,37.26891171763381L81.67706666666668,47.26255387074866L81.75413333333333,62.098525865553896L81.87653333333333,75.54384762268013L81.97173333333333,59.10896606685259L82.02613333333333,68.91125966302748L82.09413333333333,62.08629602796064L82.35253333333334,38.08920124480318L82.68346666666666,31.29498733845685L83.18213333333334,39.84991025460886L83.4224,56.38127601518653L83.44053333333333,74.96742365583432L83.8848,52.83659346324271L84.0752,72.3487981241631L84.3064,60.788796603129995L84.41066666666667,67.18491441845427L84.67813333333334,71.5541544151495L84.69173333333333,74.39793730060669L85.11786666666667,78.67485594049612L85.272,88.52567910294681L85.43066666666667,86.59398442536616L85.60746666666665,86.65855079690448L86.02453333333332,75.40017546729509L86.12426666666667,75.25584281394642L86.496,85.68471630595346L87.13520000000001,90.53444771441785L87.43440000000001,73.4690619128415L87.46613333333333,79.7928852969525L87.50693333333334,77.01404486176804L87.584,82.9034916351339L87.6656,82.52263952217919L87.93306666666666,76.40902229772192L88.15973333333334,73.56479557800728L88.37280000000001,67.83279739560477L88.6584,65.73293462133392L88.9984,80.02002644652444L89.0256,77.33526499122787L89.16159999999999,85.27990481070741L89.20240000000001,87.16395279978228L89.24773333333333,73.45451144378818L89.6648,58.46137466648264L89.70559999999999,45.98822021961726L89.72373333333333,48.29013416403299L89.8008,67.4541859852029L90.09093333333333,71.51811980818773L90.17706666666668,76.29361305440868L90.78906666666666,75.40448809312662L91.07466666666666,75.48719323283743L91.28320000000001,72.14900045106053L91.48266666666666,63.58286163676961L91.87253333333334,69.12859643381348L92.13546666666667,66.96996134719882L92.81093333333334,55.21486114600462L92.82,47.35503343155753L92.96506666666667,50.30623567186622L93.1056,61.279099124621865L93.37306666666666,41.36896648826743L94.02133333333333,57.944908590234405L94.13013333333333,63.713564101256466L94.17093333333334,72.88864327871653L94.42026666666668,66.76498814465911L95.10480000000001,67.16792802619145L95.16826666666667,65.61767198100915L95.63066666666667,76.62683421482149L95.72586666666666,93.62198989781712L96.3288,84.47887954556005L96.6552,81.67476046728743L96.75493333333334,87.02803793556268L96.832,87.13088222691933L97.04053333333334,80.21086796405355L97.19466666666666,79.34347639685699L97.48933333333333,83.92132784684361L97.852,82.6398045601403L98.19653333333333,80.731486117848L98.35973333333332,82.01098381368088L98.86293333333333,72.42181940933004L98.86746666666666,81.66015935196621L99.02159999999999,70.39526141491564L99.08506666666668,72.80604174184657L99.27546666666666,84.53229305686L100.03253333333333,79.55163072074319L100.17306666666667,90.89710914859639L100.3272,93.85562870798552L100.8168,77.90527172136225L100.9664,80.14717168142964L101.048,79.5861243832308L101.05706666666667,65.59366791849884L101.16586666666667,69.0712383137297L101.1704,69.36066795591694L101.184,84.58210406587665L101.27013333333333,78.5975651073172L101.4288,70.3821247133605L101.56933333333333,57.61210709508394L101.74613333333333,59.56677796984667L101.79146666666666,40.46675967519636L102.19493333333332,45.89525290012182L102.2584,36.310664927134724L102.38986666666666,21.650773203745104L102.42613333333333,23.294178501049004L102.5576,27.29756866845611L103.0064,39.71091603392057L104.0536,54.5020014625737L104.18053333333333,55.547693384785234L104.22133333333333,60.69119069490034L104.34826666666666,53.95918676454653L104.50693333333334,62.52598799423039L104.56133333333334,72.84979348221275L104.85146666666667,64.27021393625702L105.46346666666666,71.94032861099267L105.70826666666666,85.2798166526241L106.3112,89.44123314284039L106.31573333333333,94.62759062977828L106.9504,83.65981696879548L107.49893333333333,87.54807660102436L107.53066666666666,86.78999285281546L108.09733333333332,88.7946855719465L108.6096,87.18319546445586L108.69573333333334,86.05979590194235L108.82266666666666,89.55313654072984L108.9224,87.51190346187187L109.0176,74.21673012796542L109.32586666666666,73.73135751120532L109.56613333333333,77.9266036651108L109.82906666666666,76.0813332477337L110.02853333333334,70.5599528316497L110.99866666666668,72.9239886424879L111.08026666666666,78.95281186776452L111.18,66.03054065154252L111.2072,76.95027150084152L111.70133333333334,82.47729529633594L111.7648,77.73117895919583L111.81466666666667,64.7709298979063L112.064,79.55803065602893L112.11386666666667,49.798032002099035L112.14106666666666,54.41495071329446L112.40853333333334,63.43753632375082L112.53093333333334,66.10042427949107L112.63520000000001,49.67113573155186L112.95253333333334,57.83903298964023L113.05226666666667,56.51847910885873L113.20186666666667,38.17674384987001L113.31066666666668,52.17479281600612L113.492,59.09290024515677L113.5736,55.10636615625489L113.6008,62.95452566937219L113.6144,65.3611439422866L113.95893333333333,63.89163037601983L113.96346666666666,53.94058179048119L114.17653333333334,52.4562082415611L114.31706666666668,60.05462041217466L114.43946666666668,67.35288816034914L114.45306666666667,82.3611631885124L114.47573333333334,78.26046135124554L114.79759999999999,78.34157827066667L114.84746666666668,73.50315726249877L115.0696,80.21627684124174L115.328,80.54894868708007L115.53200000000001,79.82698225213176L115.71786666666667,76.68396096639414L115.7768,79.04986160090748L115.78133333333334,81.98926766785871L115.88106666666667,87.7268608271002L115.95360000000001,85.96843686129891L116.45679999999999,81.27311344075673L116.55199999999999,78.93814042829015L116.86479999999999,78.59227435797342L116.87840000000001,61.92236784756659L116.88293333333334,69.65692667542008L117.10053333333333,85.67238172192961L117.20933333333333,82.06064003342688L117.80773333333333,76.32245637827424L118.1704,77.00338465321411L118.22933333333333,82.26301405962587L118.51946666666666,87.12304691590998L118.81413333333334,80.35443920509353L118.91839999999999,87.57890046985567L119.2992,86.9647592603444L119.3128,91.40847523262322L119.33546666666666,96.40523472252349L119.6392,87.03233442905353L119.7208,73.23182434614728L120.0608,82.09611959811694L120.2376,76.85268598422309L120.95386666666667,69.32599965760593L121.14426666666667,67.82548684657938L121.14880000000001,74.79081115213016L121.44346666666667,55.9304816787659L121.47066666666666,56.005134235281346L121.58853333333333,67.35743063986544L121.68373333333334,57.08062338899629L121.71093333333334,60.45106186042136L122.4272,50.1824889991874L123.51066666666667,47.444543288816845L123.5696,48.16869100187955L123.72373333333333,59.741597914046665L123.83253333333333,69.1204790297862L123.896,62.79238256682525L124.02293333333334,52.7949964575146L124.53973333333333,63.50678868344653L124.6984,65.71282207953035L124.86613333333334,77.43228683680735L125.27866666666667,78.22817491830202L125.868,83.22311709184478L126.20800000000001,88.4261054388227L126.61600000000001,97.89427818226252L126.62960000000001,101.39740932802816L127.296,91.01641396881507L127.31413333333334,93.9047982813093L127.50906666666667,94.4020446199336L127.55893333333333,92.34216946168239L127.60426666666667,99.60187792552519L127.7584,91.2836897793158L127.80373333333333,88.49885587611084L127.9216,97.91778751497979L128.12560000000002,95.00437289538203L128.22986666666665,98.2504336241616L128.46106666666665,92.35808828874646L128.56986666666666,101.59827666577775L128.656,90.70000293475273L128.86906666666667,89.6249964826978L129.38133333333334,73.41989855836978L129.60346666666666,76.74166912901545L129.97066666666666,66.68772789876546L130.02053333333333,81.75536449575954L130.1112,84.81536157243355L130.44213333333332,78.9356418525316L130.70053333333334,93.33330878792307L131.1856,96.57637168112619L131.8248,99.22163845223484L132.0016,84.5171803411274L132.13306666666668,84.71834412455948L132.52746666666667,79.7290757697519L132.74506666666667,87.44665057777634L132.75413333333333,81.23515613757044L132.9264,87.29498237193019L133.03066666666666,81.71334432906689L133.35253333333333,80.11726089001493L133.99173333333331,83.76437788903105L134.28186666666667,70.78222826540107L134.72613333333334,76.42412798492258L134.7624,78.22256919783332L135.45146666666668,70.04008948123553L135.5512,77.22849285194931L135.70080000000002,90.09885859028114L136.03626666666668,85.44064668465298L136.21306666666666,84.28013061617453L136.60293333333334,94.46329106335263L136.93386666666666,101.5526333526528L137.0472,100.214351989103L137.10613333333333,98.26753037355157L137.14693333333332,100.10520253885873L137.50506666666666,104.83458907896821L137.7725333333333,97.85275486731528L138.28933333333333,101.95124469229525L138.35733333333334,88.41607160043628L138.71546666666666,79.5189680692234L139.10986666666665,88.45793987622838L139.51333333333335,66.65463865801465L139.68106666666665,66.1685958727124L139.83973333333333,73.78342225043963L140.1752,76.75997127878605L140.7373333333333,92.26074531277058L140.83253333333334,92.68068013440502L140.87333333333333,79.52926611703104L140.94586666666666,86.69660311060393L141.23146666666668,90.68688591626L141.236,99.87980281405764L141.29946666666666,90.67654381341517L141.85706666666667,87.37856680242287L141.90693333333334,81.84918990729547L142.36026666666666,88.83961672185838L142.664,83.62096757270464L143.57066666666668,78.5372402431495L144.1464,83.15767140703417L144.15093333333334,85.76408813578823L144.2824,66.35054940094315L144.29146666666665,58.5594305857785L144.74026666666668,74.54359306049588L145.42026666666666,81.77536603790776L145.7104,70.49119113077076L145.73760000000001,73.32186214494861L145.7648,74.39852905059387L145.78293333333335,83.87212061320102L145.7874666666667,68.04047329738896L146.30880000000002,62.43199646400687L146.55813333333336,73.32728462826125L147.1021333333333,90.45169798434867L147.356,89.5998953726682L147.80026666666666,79.51574371302519L147.8456,85.07660765349233L147.87733333333333,62.85431714919102L147.95893333333333,74.51888247659848L148.21733333333336,67.31035534232396L148.4168,85.90025625477321L148.80666666666667,88.89217427662881L149.2192,83.44958817103267L149.22826666666666,86.90236468018529L149.37333333333333,83.7039589057813L149.45493333333334,77.03877413746957L150.73786666666666,78.96591915285032L150.85573333333332,86.99666560213666L151.0552,86.65490544152796L151.30453333333332,89.21921270513424L151.5856,91.2561659551007L151.64453333333333,78.54339947429445L152.0616,73.3603673476515L152.19306666666665,78.93627334878614L152.36986666666667,74.38288230338068L153.6392,81.30119443211885L153.99733333333336,81.64334498915524L154.1152,83.25509374456404L154.2149333333333,74.02272683722582L154.30106666666669,84.01697698819143L154.4144,76.16956523302606L154.48693333333333,71.61358816172725L154.54133333333334,74.65949386369452L154.73626666666667,68.53300395343736L155.04453333333333,62.97995067188653L155.32559999999998,78.03245875079234L156.26853333333332,88.80720822444113L156.30026666666666,82.23588989687836L156.34106666666665,87.95165364939606L156.56773333333334,99.37471914019638L156.58133333333333,102.0823220800221L156.6765333333333,108.01160487423952L156.81706666666668,103.26280515941532L156.9032,97.29521906217558L157.5197333333333,102.65287864980202L157.88693333333333,96.06708823363786L157.89146666666667,84.42889309250707L158.04559999999998,89.39151682612967L158.66666666666669,90.07263542290947L158.68933333333334,87.60931533674794L158.8072,88.43814549831066L159.01573333333334,92.87435433965523L159.08373333333333,101.93618845870147L159.45546666666667,101.00357766109735L159.6504,101.31005379651803L159.76826666666668,107.47887237724554L159.95413333333332,97.93340406766036L160.14906666666667,90.9470111573043L160.74746666666667,88.7563169158986L160.7792,90.96572779380408L160.7973333333333,80.47432572754643L161.25973333333332,75.0708243100408L161.44106666666667,88.63723879149934L161.8672,100.02214406620655L161.93066666666667,101.51962013764984L162.01226666666668,97.12589663210883L162.2026666666667,96.04232353588512L163.43573333333333,94.83213991946864L163.676,92.57160379740094L164.21546666666666,81.17325109610637L165.04053333333334,72.56530604907951L165.20826666666667,64.05165855648296L165.6344,76.28411797511791L166.3552,81.02536740417393L166.47306666666665,91.56281213742291L166.6544,87.66161499706166L166.86293333333336,97.4648645580681L167.1576,96.85110309811934L167.18933333333334,97.8112409385863L167.22560000000001,97.00193015337561L167.44320000000002,103.23123433568605L167.484,101.7307283673307L167.75146666666666,102.22067555584599L167.8104,97.57533212617255L168.4677333333333,107.78834384206608L168.52213333333336,107.87223519886646L168.67173333333332,99.21058494505897L168.86213333333333,104.23470667559113L169.1568,99.63149277033602L169.49226666666667,100.16356418581668L169.70533333333333,93.68131289187913L170,102.43526529309008L170.13146666666665,104.35739641915961L170.1904,94.38569824307793L170.5032,88.65336359875091L170.5168,84.79034549252746L170.71173333333334,80.24226376621408L170.93386666666666,94.2766809687253L171.1877333333333,102.29235797837431L171.78613333333334,106.30225743318991L171.82240000000002,104.09792846989598L171.85413333333335,103.70850563703429L172.27573333333333,107.39858705739702L172.33013333333332,104.72136262782367L172.4208,104.9467356643934L172.9376,95.16066986897019L172.95573333333334,89.13271393795593L173.0781333333333,91.19356254589428L173.0872,85.2508054095889L173.4952,77.56250865406469L173.81253333333333,85.44963853934323L173.93493333333333,80.80879347496037L173.96666666666664,87.47216293307913L173.9802666666667,79.84703369575226L174.0936,72.78802261786694L174.71013333333332,64.56527903210434L175.12720000000002,79.28709302156862L175.15893333333335,89.31850210748298L175.56693333333334,87.61135947441188L175.60773333333333,78.95666890203215L175.66213333333334,76.80046862984345L175.74826666666667,81.40915004387286L175.82533333333333,75.0541616828456L176.07013333333333,59.73932243945035L176.12453333333332,73.68082115497381L176.23786666666666,61.45848809800805L176.4056,74.82643383760066L176.66853333333333,69.90716420423274L176.87706666666668,88.3573569768798L176.9632,86.03224785249586L176.99493333333334,86.98156652793706L177.20346666666666,86.19931381258078L177.4392,96.91763035516293L177.4528,89.60278205040578L177.61146666666667,101.78805839560158L178.20080000000002,99.84700079774804L178.43653333333333,92.9784032627536L178.44106666666667,91.58131078248958L178.53626666666668,96.097064554162L178.7856,103.1804299752354L179.17999999999998,80.52196080253792L179.18453333333332,93.49459037045403L179.3568,104.33119238152148L179.51546666666667,101.77225261822313L179.55626666666666,102.67861720044216L179.73306666666664,102.95283375940909L179.9552,102.09088616283594L180.20453333333333,94.02779610581315L180.3496,101.87879719945425L180.78026666666665,92.6578313571426L181.46933333333334,87.24343923592751L181.69146666666668,91.71024800783181L181.85466666666667,95.80857609396828L182.13573333333332,101.0424552405651L182.4848,99.46206787766397L182.4984,103.88991660148187L182.84293333333335,98.05433527392319L182.93813333333333,103.07700561034889L182.9744,82.40156433367206L183.03333333333336,77.73211409569775L183.04240000000001,92.8915987822852L183.0696,90.31587259632812L183.51386666666667,92.6240578040682L183.52293333333333,93.05929930750473L183.91733333333335,97.33484920002296L183.93093333333334,97.20986328206824L184.0533333333333,88.0544702673533L184.82853333333333,89.83452905909778L184.86026666666666,100.7834563508154L185.15946666666665,84.22870872454065L185.18213333333333,90.0918467144524L185.65359999999998,96.14755608983423L185.73066666666665,87.24558037076399L186.03439999999998,83.80881908649427L186.12506666666667,84.00396619832324L186.61013333333335,82.7272890158967L186.84586666666667,86.8520505841929L186.91386666666668,92.94975555907564L186.98186666666666,90.69493523872963L187.0544,92.82417270704173L187.11333333333332,102.90339404063046L187.272,97.75836666653525L187.3581333333333,102.53940315817145L187.38986666666665,104.42106934542971L188.44613333333334,106.54106799781901L188.71813333333333,110.84321903327725L188.85413333333335,115.37919642629183L188.94026666666667,102.01595788821389L189.34373333333335,94.81779747760994L189.52053333333333,103.68896863087944L189.53866666666667,103.13096546773167L189.57946666666666,104.46286841960635L189.60666666666668,104.4976791750576L189.72,111.10343627021012L189.9784,101.93297698862891L190.64026666666666,101.33284281732979L191.16613333333333,99.61243262153636L191.31573333333336,85.92188710130317L191.8098666666667,91.23756348855262L191.8370666666667,96.08158884126307L191.87786666666668,96.32313972953341L192.46266666666668,94.8516338243686L192.61679999999998,102.91895162474367L193.77733333333333,88.34956253957955L193.86346666666665,79.05581568550754L194.0584,79.34666031251636L194.37120000000002,85.06021595551378L195.34586666666667,81.84061762532967L195.80373333333333,84.3987099285858L196.05306666666667,82.85268016032363L196.12106666666665,84.72227303607455L196.43386666666666,71.12746948147641L196.588,77.79266804759779L196.92346666666666,82.90326133281309L196.99599999999998,90.71714364616086L197.04586666666668,94.49242205750298L197.2,94.87839272057191L197.56266666666667,95.69694596788392L197.8392,99.61818954124892L197.84373333333335,103.29883078473443L198.10666666666668,105.21799324702891L198.19733333333335,111.58573880318534L198.39226666666667,111.73504632156603L198.41493333333335,112.61288173407675L198.74133333333333,113.90245179778555L199.38053333333332,117.38544401521486L199.4848,115.3880474930162L199.48933333333335,111.12564967771391L200.10586666666669,111.86513900415476L200.54106666666667,104.51071641457088L200.80853333333332,102.44201876777522L200.85840000000002,112.14476715360946L202.14586666666665,103.40263938859569L202.33173333333335,104.33636692193971L202.64906666666667,109.23150982494035L202.776,107.00634855919732L203.00719999999998,82.20586889864651L203.44693333333333,86.28149839569122L203.58746666666664,80.17190385711135L203.61013333333335,86.50685077221357L203.68720000000002,92.44439713435975L203.91840000000002,98.38994357534631L204.09066666666666,99.06517977553726L205.01546666666667,95.10964143569866L205.34186666666668,92.65702979740858L205.81786666666667,90.75393650030601L206.21226666666666,93.4043334310979L206.26666666666665,82.21029926561786L206.41173333333333,84.62933454809308L206.53866666666667,86.85048028169705L206.93306666666666,89.39958072127266L206.9784,93.16178292612325L207.00560000000002,94.7407227843355L207.02373333333333,98.65501095480735L207.1642666666667,102.82279341106911L207.17333333333335,92.6639636297325L207.23680000000002,88.10393662524385L207.264,88.01256279728292L207.59493333333333,93.68936366731269L208.71466666666666,106.62492029007878L209.11360000000002,114.0031088121927L209.23146666666668,105.23722785174935L209.6394666666667,109.64600523605182L209.76186666666666,106.3770085265618L210.0792,104.36138759198077L210.38746666666665,108.5411710910175L210.46,107.01496402292854L210.75920000000002,96.7996685063641L210.9768,103.22085404349355L211.04933333333335,101.69880174695517L211.1808,106.128971931116L211.29413333333335,111.20075641569974L211.38026666666667,102.70475845091576L212.03306666666666,106.91486756697752L212.06933333333333,103.37893759535119L212.35946666666666,99.5131415391998L212.48186666666666,102.37420190960385L213.09386666666666,104.11324759260764L213.1256,106.99928360597409L213.2072,107.3943719493136L213.67413333333332,93.02647316182005L213.78293333333335,104.90049170416476L213.82826666666668,106.87350947021392L213.89173333333332,106.07157415799034L214.1728,110.42776234213278L214.6034666666667,81.25447210393246L214.90266666666668,88.20457269058491L214.9616,78.65456848922888L215.10666666666668,77.75517919140444L215.18826666666666,75.79940349581635L215.2336,80.97861993201795L215.3288,88.82872047574436L215.82293333333334,71.93389047712753L216.14026666666666,81.61844891029996L216.58453333333333,72.10438443254472L217.11493333333334,81.79877812393222L217.28719999999998,91.60257959474481L217.4368,80.81731622067522L217.51386666666667,84.50144023847676L217.69066666666666,85.9497557134374L218.78773333333334,97.08257509665265L218.86026666666666,100.62615943353951L219.51306666666667,110.13447869713599L219.7488,107.11759508623342L219.94826666666665,114.16907080233653L220.10693333333333,108.3366943762661L220.24293333333333,109.85710925961392L220.35173333333336,105.4555767764576L220.46053333333333,93.35355926583685L220.4968,94.96373478896794L220.54666666666665,102.27031316952333L220.5512,106.04274831715534L220.82319999999999,103.0650614974371L220.9456,106.11412052703005L220.96373333333332,107.5160381405533L221.03173333333334,106.09025676303987L221.14960000000002,102.77771604700129L221.19946666666667,97.63209924864532L221.24933333333334,102.55207491107713L221.39893333333333,106.5946199861804L221.78426666666667,109.41670980260608L222.02453333333335,108.36281881996948L222.04266666666666,110.45659503555218L222.1016,116.48280621299696L222.46426666666665,111.46202859446412L222.48239999999998,113.18533289910178L222.6048,110.13246024375019L222.6456,110.05649870741011L223.04,99.23103172518127L223.07173333333336,106.51263546310253L223.2712,101.89010298522292L223.51146666666665,107.84224533980095L223.67013333333335,106.23413473009796L223.68826666666666,101.62985388042551L223.9648,106.94258866506394L224.40453333333332,93.5006928204262L224.5768,77.13810958291404L224.78533333333334,87.25517642285521L224.78986666666668,91.14403096635075L224.80346666666668,99.32765778941905L225.05733333333333,98.21660062804708L225.43813333333333,91.35955775460535L225.54693333333336,92.31971589624354L225.76906666666665,90.32889067416524L225.83253333333334,94.54427509532002L226.50346666666667,94.96255846418136L226.6394666666667,95.60127176348142L226.90693333333334,98.13059768489356L227.13813333333331,88.98736055088308L228.072,93.98792707341093L228.1128,95.23951885786326L228.20346666666666,94.69235137080788L228.344,100.04865996660538L228.35306666666668,101.6928453655889L228.96506666666667,103.0878175905095L229.1282666666667,104.51699171130339L229.32773333333333,112.43281081064684L229.59519999999998,111.17324307950278L229.64960000000002,118.55452096966795L230.16186666666664,116.07365445743193L230.3296,115.6736224569798L230.47013333333334,107.04927046980168L230.62879999999998,108.79746003516303L231.30880000000002,111.49469117643923L231.3496,110.13901451693198L231.47199999999998,111.30623293688538L231.608,113.97403246732033L231.76213333333334,113.19967393023656L231.96613333333335,114.63038568245918L232.0024,114.47087305785475L232.12933333333334,115.72152712020755L232.64159999999998,117.76142131133963L232.71413333333334,109.17265870315649L232.8184,108.04080655334808L232.9952,106.72780285734622L233.07226666666668,108.83458074387939L233.46213333333333,103.86185361094222L233.50293333333335,103.14289424886292L233.65706666666665,109.28103039198021L234.1784,106.9250745582916L234.3552,112.8602956917704L234.59093333333334,107.84413733837295L235.8965333333333,106.84747432921701L235.99173333333334,107.53115801800278L236.63093333333333,102.76197027980137L236.82586666666668,95.52617989345428L237.06613333333334,86.92969169725309L237.09786666666668,98.09344412608723L237.18853333333334,100.98987279098772L237.3064,102.6030880946338L237.7144,96.30978871542008L237.95013333333333,95.12167066917404L238.22213333333335,94.41482032236263L238.25386666666668,87.30770428281744L238.38533333333334,92.11383220949982L238.6256,100.46080316814042L238.64373333333333,88.68573289721381L238.7026666666667,100.55428537330891L238.76613333333333,95.25116582275551L238.87493333333333,101.81939255929662L238.92933333333332,109.70938600686648L239.0744,99.74910108255366L239.10613333333333,96.06294476339885L239.1696,99.59632528741052L239.68186666666665,94.50957364499992L239.73173333333332,88.10968772566572L239.75893333333332,96.69745823251053L239.9448,107.62550944933852L239.96293333333332,108.16384806597515L240.0264,106.69092884822712L240.13066666666668,103.27019371921597L240.61120000000003,104.09032838002258L240.80613333333332,97.63015802394779L241.00560000000002,107.38164878574597L241.0872,101.92900058549287L241.15973333333335,103.35053955757513L241.29573333333335,97.61059456938119L241.60853333333333,103.19498785658843L242.1752,99.83835860358901L242.37013333333334,100.37835548516811L242.3792,102.40259452958742L242.54693333333336,102.76935161639248L242.55146666666667,111.31970286173113L242.5968,107.91325744597877L242.63306666666668,110.84992323284605L242.7464,114.28604271933051L243.12266666666667,109.64605106883197L243.14533333333333,106.22139087249063L243.21333333333334,107.94352157561424L244.09279999999998,104.53561794765045L244.7184,105.09465757937852L245.67946666666666,105.39680956886457L246.03306666666666,106.95125652982361L246.27786666666665,104.0659289847554L246.39120000000003,110.60006188369964L246.9624,93.79129658893505L247.3296,89.67769863297364L247.55173333333335,95.01142342686003L247.60613333333333,95.51820585824838L247.69226666666665,100.06675102855709L247.95973333333333,102.69314607923975L248.4856,101.19874230861839L248.84373333333335,104.12835970263154L249.03413333333333,87.85330631632435L249.3288,98.29162712600399" style="fill: none;" fill="none"></path></g></g></g></g><g opacity="0.2"><g><g><g><path stroke="rgb(255, 112, 67)" stroke-width="2px" d="M22.870666666666665,-17.404263236305923L22.988533333333333,13.537719791585744L23.0928,33.35065765814349L23.42373333333333,65.23343487219377L23.704800000000002,1.6189518841830193L23.727466666666665,42.91219798001376L23.822666666666667,7.766314311461002L23.904266666666665,65.93608151782644L24.062933333333334,26.675630266016213L24.072,36.01439736106181L24.108266666666665,19.666688984090655L24.815466666666666,34.87035166133535L25.096533333333333,53.24163415215234L25.29146666666667,70.39524013345893L25.3232,34.76854746991938L25.5408,26.9214263829318L25.599733333333333,40.49750479784879L25.70853333333333,31.80372584949842L25.903466666666667,-13.234467723152846L25.939733333333333,21.405327103354722L26.22533333333333,59.39666444605048L26.3024,25.198403705250144L26.3296,-13.95910523154518L26.456533333333333,31.126320470463156L27.068533333333335,30.7677826014432L27.263466666666666,29.4274973869324L27.4992,59.00564182888378L27.671466666666664,30.354354381561308L28.016,29.80644431981173L28.3832,14.716439680619686L28.63253333333333,43.28278259797531L28.646133333333335,45.92323899269107L28.709600000000002,65.91945333914323L28.727733333333333,-122.6717454736883L28.945333333333334,-7.726470340381979L28.977066666666666,32.21047000451523L29.17653333333333,-19.176861806349308L29.31253333333333,11.246127215298742L29.570933333333333,7.143905379555434L29.7024,26.887292320078103L29.774933333333333,-13.665758696469396L29.847466666666666,-19.330662814053625L30.332533333333334,17.851565100929975L30.52746666666667,-17.7089524269104L30.541066666666666,10.416338660500259L31.026133333333334,-3.110086701133042L31.175733333333334,-9.67995340173897L31.357066666666668,29.13716012781319L31.43413333333333,7.52880334854126L31.493066666666667,9.394014315171688L31.896533333333334,27.924672690304845L32.168533333333336,53.222816532308414L32.581066666666665,58.620184443213745L32.635466666666666,62.037873159755364L32.78053333333333,41.99600848284635L32.80773333333333,64.44463805718857L32.92106666666667,69.4698202610016L33.12506666666666,77.711426561529L33.4968,33.33077907562259L33.70986666666667,51.73331173983489L33.78693333333334,67.2596806829626L33.796,67.36954819072378L33.818666666666665,72.63773907314648L33.932,98.1762343645096L33.93653333333333,77.61615211313422L33.99093333333333,34.62989893826571L34.0136,51.08257510445337L34.145066666666665,10.149419741197079L34.21306666666666,67.85728237845683L34.83866666666667,17.904844717545956L35.088,61.91817727955906L36.117066666666666,39.00332212448123L36.43893333333334,6.377215168692857L36.452533333333335,-40.34841060638428L36.71546666666667,41.40538020567462L36.99653333333333,27.327533960342436L37.30933333333333,95.30023461038417L37.3728,78.26815225861291L37.38186666666667,71.9041798331521L37.386399999999995,27.101934714750826L37.64933333333333,1.9084885987368523L38.44266666666667,49.39811359752309L39.068266666666666,77.92931936003946L39.077333333333335,14.268491593274206L39.303999999999995,26.454911448738812L39.62586666666667,10.403800010681152L39.8616,45.47839663245463L39.9568,-3.374999436465174L39.98853333333333,49.574927850203096L40.4736,41.40949866988444L40.60053333333333,-5.378328453410745L40.727466666666665,13.327716697346062L40.9632,23.026314106854528L41.24426666666667,44.94657462293452L41.68853333333333,13.24357271194458L41.82906666666666,17.745111963965684L41.851733333333335,13.770089908079655L42.237066666666664,82.4832991036502L42.24613333333333,55.09750864722514L42.61333333333334,76.90255826169795L43.0304,21.442345055666834L43.10746666666667,74.84372160651469L43.202666666666666,67.10696957328105L43.81013333333333,53.562025590376436L43.828266666666664,75.23371219635011L43.864533333333334,76.98249697685243L44.37226666666666,87.80949570915918L44.43573333333333,78.99315628138457L44.608000000000004,66.03413375941192L44.662400000000005,51.22180234302175L44.852799999999995,88.70305294340308L45.20186666666666,77.75360465049745L45.56,10.71494178338483L45.56906666666667,53.76477555795151L45.81386666666666,82.37579464912416L45.940799999999996,44.951329664750546L46.4168,61.487648270346924L46.897333333333336,23.79314899444583L46.9608,67.53805799917741L47.23733333333333,84.07622846690093L47.82213333333333,93.02703526887028L48.41146666666666,71.9989527355541L48.610933333333335,83.28240654685281L48.99626666666667,-14.843562299554975L49.086933333333334,57.635910077528536L49.25013333333333,61.41374739733611L49.281866666666666,18.268562013452737L49.44506666666666,60.111984773115694L49.54026666666667,48.68431719866666L49.821333333333335,42.91066440668973L49.912,46.44166393713519L50.4152,65.5338512767445L50.46053333333333,43.82869612086904L50.77333333333333,29.85095652666959L50.83226666666667,68.20226886055688L50.85946666666667,64.47820305824281L50.9184,50.683209462599336L51.1768,15.039753588763148L51.28106666666667,30.15623406930405L51.5712,29.096342000094324L52.224000000000004,60.17301906238903L52.468799999999995,75.76683629642834L52.60026666666666,56.899274045770824L52.84506666666667,91.55671461061999L53.02186666666666,46.5247083793987L53.03546666666667,73.6710781400854L53.089866666666666,71.89662770791489L53.2304,56.10092856667261L53.73813333333334,85.63458973711188L54.245866666666664,49.48415767062795L54.363733333333336,72.18197844245219L54.88053333333334,78.21011760018091L54.9168,52.613621408289134L55.102666666666664,88.64178234880622L55.519733333333335,43.92775145444003L55.809866666666665,86.39596548947422L56.02746666666666,59.524192159826114L56.13173333333334,60.66635706207971L56.44,90.50460132685576L56.48533333333333,87.67603624950756L56.49893333333333,64.95369759472935L56.56693333333333,81.92761025645517L56.71653333333333,84.24080789089204L57.541599999999995,89.6292106671767L57.845333333333336,71.80498946796764L57.97226666666667,77.57962606169963L58.017599999999995,69.1197990287434L58.17626666666667,63.40365041385998L58.89253333333333,63.37980768897319L59.232533333333336,70.53914525292139L59.74933333333334,69.68018022450535L59.935199999999995,60.9717117656361L60.44746666666667,24.177149967713802L60.57893333333334,48.518122217871934L60.6016,66.13742329857568L60.6424,57.40772594105114L61.0504,73.91823421825063L61.064,42.10690801793879L61.190933333333334,39.61821751161057L61.236266666666666,36.025180599906236L61.65786666666666,54.03272650458598L61.812000000000005,51.93929282101719L62.084,11.886967962438405L62.64613333333333,23.02678671750155L62.9136,16.282584558833747L63.031466666666674,41.34696938774803L63.04506666666667,88.45010497353296L63.14026666666667,74.65477379885589L63.172000000000004,78.05877609686418L63.43493333333333,96.96725774895062L63.462133333333334,71.98375203392725L63.716,83.18909970196812L64.64533333333333,65.25694966316225L64.89920000000001,92.03288912773134L65.04426666666667,71.64193879474294L65.43866666666666,70.08927778764206L65.58826666666667,78.52106647057968L65.9464,89.21368463472888L65.97813333333333,28.771841742775678L66.03706666666666,62.6011382449757L66.30906666666667,67.94985619458286L66.44506666666666,55.42442982847041L66.54933333333334,53.60104972665961L66.63093333333333,85.05868955091996L67.28826666666667,86.42994523048402L67.5784,66.7021062157371L68.26293333333334,41.21626843105665L68.38080000000001,63.88000336560337L69.2512,25.550826571204453L69.28293333333333,72.80867945064199L69.7952,13.14463311975652L69.80879999999999,81.10526290806858L69.904,-13.49673769690773L70.17146666666667,82.04002889719878L70.3664,54.15096597238022L70.75173333333333,75.74503833597358L70.89226666666667,45.833452614870936L70.96480000000001,82.74943676861851L71.04186666666666,57.597406777468606L71.2232,42.0352158763192L71.43173333333333,38.55731270530009L71.43626666666667,70.21227229725231L71.536,-22.12955951690674L71.69466666666666,87.0143668759953L71.81253333333333,35.67805290222171L71.85333333333332,89.98478748581627L72.08906666666667,22.483747438950985L72.10266666666666,16.0771532492204L72.2568,44.01029435071078L72.27493333333334,33.79100539467552L72.3792,28.312965739857077L72.40639999999999,63.19628043608232L72.41546666666666,38.74371420253408L72.62400000000001,55.459904562343254L72.99573333333333,31.65256760337138L73.08186666666667,42.026429176330595L73.12266666666666,45.934735970063656L73.43093333333334,37.50259041786197L73.44,8.707966912876458L73.712,64.40373312343252L74.4328,86.36984651738948L74.67306666666667,84.06180419705133L74.76373333333333,89.30868901989678L74.90426666666666,94.8999044570056L74.94506666666668,6.718083186583073L75.02213333333333,106.05815984986046L75.0992,42.15004097331655L75.47093333333332,78.72882225296716L75.5752,68.8172414086082L75.63866666666667,101.11501899632542L75.97413333333333,75.45531836423008L76.49093333333333,69.84896009618586L76.92613333333333,83.26350694352931L76.94879999999999,100.54515665227717L77.112,61.58625992861663L77.25253333333333,79.76856567642908L77.69226666666667,72.97425714406101L77.81013333333334,60.93436587940563L77.82826666666668,62.89755192669956L77.9008,79.16270776228471L78.0912,77.5662579319694L78.38133333333334,48.89224659312856L78.39493333333334,86.58119028264827L78.46746666666667,71.55725468288769L78.90266666666668,103.79096459258687L79.14293333333333,74.33920491825451L80.10853333333333,74.6184020692652L80.23546666666667,61.076206944205566L80.71600000000001,49.36667052182284L81.0424,53.859625621275484L81.32346666666666,4.526568326083094L81.67706666666668,62.25301710042088L81.75413333333333,84.35248385776174L81.87653333333333,95.71183025836946L81.97173333333333,34.45664373311129L82.02613333333333,83.61470005728982L82.09413333333333,51.8488505753604L82.35253333333334,2.0935590700669593L82.68346666666666,21.103666478937356L83.18213333333334,52.682294628836914L83.4224,81.17832465605302L83.44053333333333,102.84664511680604L83.8848,19.640348174355267L84.0752,101.61710511554372L84.3064,43.44879432158038L84.41066666666667,76.77909114144067L84.67813333333334,78.10801441019233L84.69173333333333,78.66361162879251L85.11786666666667,85.09023390033029L85.272,103.30191384662282L85.43066666666667,83.69644240899521L85.60746666666665,86.75540035421199L86.02453333333332,58.512612472880974L86.12426666666667,75.03934383392335L86.496,101.32802654396404L87.13520000000001,97.80904482711446L87.43440000000001,47.870983210476965L87.46613333333333,89.27862037311901L87.50693333333334,72.84578420899133L87.584,91.73766179518267L87.6656,81.95136135274714L87.93306666666666,67.23859646103601L88.15973333333334,69.2984554984353L88.37280000000001,59.234800122000976L88.6584,62.58314045992766L88.9984,101.45066418431023L89.0256,73.30812280828303L89.16159999999999,97.19686453992671L89.20240000000001,89.99002478339456L89.24773333333333,52.890349409797L89.6648,35.97166950052437L89.70559999999999,27.278488549319178L89.72373333333333,51.74300508065659L89.8008,96.20026371695779L90.09093333333333,77.61402054266496L90.17706666666668,83.45685292374004L90.78906666666666,74.07080065120351L91.07466666666666,75.61125094240363L91.28320000000001,67.14171127839523L91.48266666666666,50.73365341533315L91.87253333333334,77.44719862937929L92.13546666666667,63.732008717276855L92.81093333333334,37.582210844213336L92.82,35.565291859886884L92.96506666666667,54.733039032329216L93.1056,77.73839430375534L93.37306666666666,11.503767533735783L94.02133333333333,82.80882174318488L94.13013333333333,72.36654736778955L94.17093333333334,86.65126204490663L94.42026666666668,57.57950544357301L95.10480000000001,67.77233784848994L95.16826666666667,63.29228791323577L95.63066666666667,93.14057756553997L95.72586666666666,119.11472342231059L96.3288,70.76421401717448L96.6552,77.46858184987849L96.75493333333334,95.05795413797553L96.832,87.28514866395432L97.04053333333334,69.83084656975488L97.19466666666666,78.04238904606213L97.48933333333333,90.78810502182354L97.852,80.71751963008535L98.19653333333333,77.86900845440952L98.35973333333332,83.9302303574302L98.86293333333333,58.038072802803754L98.86746666666666,95.51766926592047L99.02159999999999,53.49791450933979L99.08506666666668,76.42221223224294L99.27546666666666,102.12167002938011L100.03253333333333,72.08063721656801L100.17306666666667,107.91532679037616L100.3272,98.2934080470692L100.8168,53.97973624142735L100.9664,83.51002162153071L101.048,78.74455343593252L101.05706666666667,44.604983221400886L101.16586666666667,74.28759390657599L101.1704,69.7948124191978L101.184,107.41425823081624L101.27013333333333,69.620756669478L101.4288,58.05896412242544L101.56933333333333,38.457080667669146L101.74613333333333,62.498784281990766L101.79146666666666,11.816732233220876L102.19493333333332,54.03799273751001L102.2584,21.93378296765414L102.38986666666666,-0.339064381339341L102.42613333333333,25.759286447004854L102.5576,33.30265391956678L103.0064,58.33093708211726L104.0536,76.68862960555339L104.18053333333333,57.11623126810248L104.22133333333333,68.40643666007304L104.34826666666666,43.86118086901578L104.50693333333334,75.37618983875622L104.56133333333334,88.33550171418625L104.85146666666667,51.40084461732346L105.46346666666666,83.44550062309612L105.70826666666666,105.28904871507125L106.3112,95.68335787816481L106.31573333333333,102.40712686018512L106.9504,67.20815647732128L107.49893333333333,93.38046604936774L107.53066666666666,85.65286723050205L108.09733333333332,91.8017246506431L108.6096,84.7659603032199L108.69573333333334,84.37469655817206L108.82266666666666,94.79314749891108L108.9224,84.45005384358494L109.0176,54.27397012710573L109.32586666666666,73.00329858606513L109.56613333333333,84.21947289596905L109.82906666666666,73.31342762166804L110.02853333333334,62.2778822075237L110.99866666666668,76.47004235874523L111.08026666666666,87.99604670567948L111.18,46.6471338272095L111.2072,93.32986777479L111.70133333333334,90.76783098957756L111.7648,70.61200445348567L111.81466666666667,45.33055630597201L112.064,101.7386817932129L112.11386666666667,5.158034021204173L112.14106666666666,61.340328780087575L112.40853333333334,76.97141473943537L112.53093333333334,70.09475621310149L112.63520000000001,25.027202909643023L112.95253333333334,70.0908788767728L113.05226666666667,54.53764828768645L113.20186666666667,10.664140961386948L113.31066666666668,73.17186626521026L113.492,69.47006138888274L113.5736,49.12656502290207L113.6008,74.7267649390481L113.6144,68.97107135165822L113.95893333333333,61.68736002661967L113.96346666666666,39.01400891217318L114.17653333333334,50.229647918181L114.31706666666668,71.45223866809499L114.43946666666668,78.30028978261082L114.45306666666667,104.87357573075728L114.47573333333334,72.10940859534526L114.79759999999999,78.46325364979832L114.84746666666668,66.24552575024693L115.0696,90.28595620935614L115.328,81.0479564558376L115.53200000000001,78.74403259970926L115.71786666666667,71.96942903778772L115.7768,82.59871255267751L115.78133333333334,86.39837676828559L115.88106666666667,96.33325056596236L115.95360000000001,83.33080091259698L116.45679999999999,74.23012830994348L116.55199999999999,75.4356809095903L116.86479999999999,78.07347525249828L116.87840000000001,36.917508081956356L116.88293333333334,81.25876491720027L117.10053333333333,109.69556429169396L117.20933333333333,76.64302750067277L117.80773333333333,67.71518089554529L118.1704,78.0247770656239L118.22933333333333,90.15245816924356L118.51946666666666,94.41309620033611L118.81413333333334,70.20152763886887L118.91839999999999,98.41559236699885L119.2992,86.04354744607753L119.3128,98.07404919104144L119.33546666666666,103.90037395737389L119.6392,72.97298398884861L119.7208,52.53105922178791L120.0608,95.39256247607146L120.2376,68.98753556338225L120.95386666666667,58.03597016768022L121.14426666666667,65.57471763003957L121.14880000000001,85.2387976104563L121.44346666666667,27.63998746871951L121.47066666666666,56.11711307005449L121.58853333333333,84.38587524674158L121.68373333333334,41.66541251269254L121.71093333333334,65.506719567559L122.4272,34.779629707336454L123.51066666666667,43.33762472326106L123.5696,49.25491257147357L123.72373333333333,77.10095828229731L123.83253333333333,83.1888007033955L123.896,53.30023787238383L124.02293333333334,37.79891729354861L124.53973333333333,79.57447702234442L124.6984,69.02187217365612L124.86613333333334,95.01148397272284L125.27866666666667,79.42200704054399L125.868,90.71553035215899L126.20800000000001,96.23058795928956L126.61600000000001,112.09653729742224L126.62960000000001,106.65210604667665L127.296,75.44492092999546L127.31413333333334,98.23737475005065L127.50906666666667,95.14791412787005L127.55893333333333,89.2523567243056L127.60426666666667,110.49144062128936L127.7584,78.80640756000173L127.80373333333333,84.32160502130336L127.9216,112.04618497328326L128.12560000000002,90.6342509659854L128.22986666666665,103.11952471733095L128.46106666666665,83.51957028562373L128.56986666666666,115.45855923132464L128.656,74.35259233821523L128.86906666666667,88.01248680461538L129.38133333333334,49.11225167187777L129.60346666666666,81.72432498498398L129.97066666666666,51.60681605339052L130.02053333333333,104.35681939125062L130.1112,89.40535718744452L130.44213333333332,70.11606227267873L130.70053333333334,114.92980919101024L131.1856,101.4409660209309L131.8248,103.18953860889782L132.0016,62.46049317446624L132.13306666666668,85.02008979970759L132.52746666666667,72.24517323754053L132.74506666666667,99.02301278981297L132.75413333333333,71.91791447726165L132.9264,96.38472172346984L133.03066666666666,73.3408872647719L133.35253333333333,77.72313573143701L133.99173333333331,89.23505338755523L134.28186666666667,51.30900382995607L134.72613333333334,84.88697756420483L134.7624,80.92023101719944L135.45146666666668,57.766369906338795L135.5512,88.01109790802003L135.70080000000002,109.40440719777888L136.03626666666668,78.45332882621072L136.21306666666666,82.53935651345688L136.60293333333334,109.73803173411977L136.93386666666666,112.18664678660308L137.0472,98.2069299437783L137.10613333333333,95.34729795022444L137.14693333333332,102.86171078681947L137.50506666666666,111.92866888913242L137.7725333333333,87.3800035498359L138.28933333333333,108.0989794297652L138.35733333333334,68.11331196264787L138.71546666666666,66.17331277240407L139.10986666666665,101.86639758673583L139.51333333333335,33.94968683069405L139.68106666666665,65.43953169475903L139.83973333333333,85.20566181703049L140.1752,81.22479482130571L140.7373333333333,115.51190636374736L140.83253333333334,93.31058236685668L140.87333333333333,59.80214509097014L140.94586666666666,97.44760860096325L141.23146666666668,96.67231012474407L141.236,113.66917816075413L141.29946666666666,76.87165531245147L141.85706666666667,82.43160128593446L141.90693333333334,73.55512456460434L142.36026666666666,99.32525694370271L142.664,75.79299384897406L143.57066666666668,70.91164924881677L144.1464,90.08831815286116L144.15093333333334,89.6737132289193L144.2824,37.230241298675566L144.29146666666665,46.872752363031566L144.74026666666668,98.51983677257192L145.42026666666666,92.62302550402556L145.7104,53.56492877006532L145.73760000000001,77.56786866621538L145.7648,76.01352940906179L145.78293333333335,98.08250795711172L145.7874666666667,44.293002323670834L146.30880000000002,54.01928121393378L146.55813333333336,89.67021687464282L147.1021333333333,116.1383180184798L147.356,88.32219145514749L147.80026666666666,64.38951622356069L147.8456,93.41790356419304L147.87733333333333,29.520881392739057L147.95893333333333,92.01573046770964L148.21733333333336,56.49756464091216L148.4168,113.78510762344708L148.80666666666667,93.3800513094122L149.2192,75.28570901263845L149.22826666666666,92.08152944391425L149.37333333333333,78.90635024417531L149.45493333333334,67.040996985002L150.73786666666666,81.85663667592137L150.85573333333332,99.04278527606618L151.0552,86.14226520061494L151.30453333333332,93.06567360054363L151.5856,94.3115958300504L151.64453333333333,59.47424975308506L152.0616,65.58581915768711L152.19306666666665,87.30013235048814L152.36986666666667,67.55279573527251L153.6392,91.67866262522612L153.99733333333336,82.15657082470982L154.1152,85.67271687767725L154.2149333333333,60.174176476218506L154.30106666666669,99.00835221463984L154.4144,64.398447600278L154.48693333333333,64.77962255477907L154.54133333333334,79.22835241664541L154.73626666666667,59.34326908805156L155.04453333333333,54.65037074956028L155.32559999999998,100.61122086915104L156.26853333333332,104.96933243491434L156.30026666666666,72.37891240553422L156.34106666666665,96.5252992781726L156.56773333333334,116.5093173763969L156.58133333333333,106.14372648976067L156.6765333333333,116.90552906556564L156.81706666666668,96.13960558717902L156.9032,88.34383991631596L157.5197333333333,110.68936803124168L157.88693333333333,86.18840260939164L157.89146666666667,66.97160038081084L158.04559999999998,96.83545242656362L158.66666666666669,91.09431331807919L158.68933333333334,83.91433520750566L158.8072,89.68139074065469L159.01573333333334,99.5286676016721L159.08373333333333,115.52893963727084L159.45546666666667,99.60466146469118L159.6504,101.76976799964906L159.76826666666668,116.73210024833679L159.95413333333332,83.61520160328259L160.14906666666667,80.46742179177026L160.74746666666667,85.47027555379002L160.7792,94.2798441106623L160.7973333333333,64.73722262815996L161.25973333333332,66.96557218378241L161.44106666666667,108.98686051368715L161.8672,117.09950197826734L161.93066666666667,103.7658342448148L162.01226666666668,90.53531137379734L162.2026666666667,94.41696389154956L163.43573333333333,93.01686449484393L163.676,89.18079961429943L164.21546666666666,64.0757220441645L165.04053333333334,59.65338847853923L165.20826666666667,51.281187317588135L165.6344,94.63280710307036L166.3552,88.13724154775794L166.47306666666665,107.36897923729637L166.6544,81.80981928651984L166.86293333333336,112.16973889957775L167.1576,95.9304609081962L167.18933333333334,99.25144769928673L167.22560000000001,95.78796397555959L167.44320000000002,112.57519060915168L167.484,99.47996941479771L167.75146666666666,102.95559633861889L167.8104,90.60731698166241L168.4677333333333,123.1078614159064L168.52213333333336,107.99807223406707L168.67173333333332,86.2181095643477L168.86213333333333,111.77088927138936L169.1568,92.7266719124534L169.49226666666667,100.96167130903765L169.70533333333333,83.95793595097284L170,115.56619389490649L170.13146666666665,107.2405931082639L170.1904,79.42815097895537L170.5032,80.05486163226043L170.5168,78.9958183331923L170.71173333333334,73.42014117674394L170.93386666666666,115.32830677249217L171.1877333333333,114.3158734928478L171.78613333333334,112.31710661541332L171.82240000000002,100.79143502495506L171.85413333333335,103.12437138774179L172.27573333333333,112.93370918794112L172.33013333333332,100.70552598346364L172.4208,105.284795219248L172.9376,80.48157117583536L172.95573333333334,80.09078004143457L173.0781333333333,94.28483545780183L173.0872,76.33666970513086L173.4952,66.03006352077831L173.81253333333333,97.28033336726104L173.93493333333333,73.84752587838608L173.96666666666664,97.4672171202573L173.9802666666667,68.40933983976191L174.0936,62.19950600103898L174.71013333333332,52.23116365346043L175.12720000000002,101.36981400576506L175.15893333333335,104.36561573635448L175.56693333333334,85.05064552480525L175.60773333333333,65.97463304346259L175.66213333333334,73.5661682215604L175.74826666666667,88.322172164917L175.82533333333333,65.52167914130473L176.07013333333333,36.76706357435748L176.12453333333332,94.59306922825901L176.23786666666666,43.12498851255938L176.4056,94.87835244698958L176.66853333333333,62.52825975418092L176.87706666666668,116.0326461358504L176.9632,82.54458416591991L176.99493333333334,88.40554454109888L177.20346666666666,85.02593473954636L177.4392,112.99510516903618L177.4528,78.63050959327005L177.61146666666667,120.06597291339529L178.20080000000002,96.9354144009677L178.43653333333333,82.67550696026196L178.44106666666667,89.48567206209357L178.53626666666668,102.87069521167062L178.7856,113.80547810684551L179.17999999999998,46.53425704349172L179.18453333333332,112.9535347223282L179.3568,120.58609539812261L179.51546666666667,97.93384297327563L179.55626666666666,104.0381640737707L179.73306666666664,103.36415859785949L179.9552,100.79796476797625L180.20453333333333,81.93316102027894L180.3496,113.65529883991589L180.78026666666665,78.82638259367509L181.46933333333334,79.12185105410491L181.69146666666668,98.41046116568826L181.85466666666667,101.95606822317298L182.13573333333332,108.89327396046032L182.4848,97.0914868333123L182.4984,110.5316896872087L182.84293333333335,89.30096328258516L182.93813333333333,110.61101111498748L182.9744,51.38840241865681L183.03333333333336,70.72793873873626L183.04240000000001,115.63082581216639L183.0696,86.45228331739253L183.51386666666667,96.08633561567828L183.52293333333333,93.71216156265953L183.91733333333335,103.74817403880034L183.93093333333334,97.02238440513612L184.0533333333333,74.32138074528088L184.82853333333333,92.50461724671452L184.86026666666666,117.20684728839183L185.15946666666665,59.39658728512852L185.18213333333333,98.88655369932002L185.65359999999998,105.23112015290694L185.73066666666665,73.89261679215866L186.03439999999998,78.65367716008967L186.12506666666667,84.29668686606668L186.61013333333335,80.81227324225686L186.84586666666667,93.03919293663719L186.91386666666668,102.09631302139977L186.98186666666666,87.31270475821061L187.0544,96.01802890950984L187.11333333333332,118.02222604101354L187.272,90.04082560539247L187.3581333333333,109.71095789562573L187.38986666666665,107.24356862631713L188.44613333333334,109.72106597640298L188.71813333333333,117.29644558646464L188.85413333333335,122.18316251581365L188.94026666666667,81.971100081097L189.34373333333335,84.02055686170405L189.52053333333333,116.99572536078367L189.53866666666667,102.29396072300999L189.57946666666666,106.46072284741835L189.60666666666668,104.54989530823448L189.72,121.0120719129389L189.9784,88.17728806625713L190.64026666666666,100.43264156038111L191.16613333333333,97.03181732784618L191.31573333333336,65.38606882095338L191.8098666666667,99.2110780694268L191.8370666666667,103.34762687032874L191.87786666666668,96.6854660619389L192.46266666666668,92.64437496662141L192.61679999999998,115.0199283253063L193.77733333333333,66.49547891183335L193.86346666666665,65.11519540439953L194.0584,79.78292725302957L194.37120000000002,93.63054942000997L195.34586666666667,77.01122013005345L195.80373333333333,88.23584838347001L196.05306666666667,80.53363550793041L196.12106666666665,87.52666234970094L196.43386666666666,50.73526414957915L196.588,87.79046589677985L196.92346666666666,90.56915126063608L196.99599999999998,102.4379671161825L197.04586666666668,100.15533967451617L197.2,95.45734871517529L197.56266666666667,96.92477583885194L197.8392,105.50005490129645L197.84373333333335,108.8197926499627L198.10666666666668,108.09673694047062L198.19733333333335,121.13735713741997L198.39226666666667,111.95900759913705L198.41493333333335,113.92963485284285L198.74133333333333,115.8368068933487L199.38053333333332,122.6099323413589L199.4848,112.3919527097182L199.48933333333335,104.73205295476048L200.10586666666669,112.97437299381603L200.54106666666667,93.47908253019507L200.80853333333332,99.33897229758178L200.85840000000002,126.69888973236084L202.14586666666665,90.28944774107501L202.33173333333335,105.73695822195575L202.64906666666667,116.57422417944127L202.776,103.66860666058281L203.00719999999998,45.005149407820284L203.44693333333333,92.39494264125825L203.58746666666664,71.0075120492415L203.61013333333335,96.00927114486696L203.68720000000002,101.35071667757903L203.91840000000002,107.30826323682612L204.09066666666666,100.07803407582371L205.01546666666667,89.17633392594078L205.34186666666668,88.97811233997346L205.81786666666667,87.89929655465214L206.21226666666666,97.37992882728578L206.26666666666665,65.4192480173978L206.41173333333333,88.25788747180593L206.53866666666667,90.18219888210298L206.93306666666666,93.22323138063605L206.9784,98.80508623339914L207.00560000000002,97.10913257165389L207.02373333333333,104.52644321051513L207.1642666666667,109.07446709546177L207.17333333333335,77.42571895772761L207.23680000000002,81.26389611851086L207.264,87.87550205534156L207.59493333333333,102.20456497235732L208.71466666666666,126.0282552242279L209.11360000000002,125.07039159536362L209.23146666666668,92.08840641108428L209.6394666666667,116.25917131250554L209.76186666666666,101.47351346232675L210.0792,101.33795619010927L210.38746666666665,114.81084633957258L210.46,104.7256534207951L210.75920000000002,81.47672523151745L210.9768,112.85263234918769L211.04933333333335,99.41572330214761L211.1808,112.77422720735724L211.29413333333335,118.80843314257535L211.38026666666667,89.9607615037398L212.03306666666666,113.23003124107015L212.06933333333333,98.07504263791172L212.35946666666666,93.71444745497271L212.48186666666666,106.66579246520998L213.09386666666666,106.72181611711329L213.1256,111.32833762602374L213.2072,107.98700446432288L213.67413333333332,71.47462498057973L213.78293333333335,122.71151951768184L213.82826666666668,109.83303611928767L213.89173333333332,104.86867118965496L214.1728,116.96204461834648L214.6034666666667,37.49453674663198L214.90266666666668,98.62972357056358L214.9616,64.32956218719484L215.10666666666668,76.40609524466777L215.18826666666666,72.8657399524342L215.2336,88.74744458632036L215.3288,100.60387129133399L215.82293333333334,46.5916454792023L216.14026666666666,96.14528656005861L216.58453333333333,57.83328771591188L217.11493333333334,96.34036866101353L217.28719999999998,106.30828180096367L217.4368,64.63942115957087L217.51386666666667,90.02762626517904L217.69066666666666,88.12222892587836L218.78773333333334,113.78180417147551L218.86026666666666,105.94153593886983L219.51306666666667,124.3969575925307L219.7488,102.59226966987957L219.94826666666665,124.74628437649122L220.10693333333333,99.58812973716043L220.24293333333333,112.13773158463566L220.35173333333336,98.85327805172314L220.46053333333333,75.20053299990569L220.4968,97.37899807366459L220.54666666666665,113.23018074035646L220.5512,111.70140103860335L220.82319999999999,98.59853126785973L220.9456,110.68770907141946L220.96373333333332,109.61891456083819L221.03173333333334,103.95158469676973L221.14960000000002,97.80890497294341L221.19946666666667,89.91367405111141L221.24933333333334,109.93203840472482L221.39893333333333,112.65843759883535L221.78426666666667,113.64984452724458L222.02453333333335,106.78198234601454L222.04266666666666,113.59725935892627L222.1016,125.52212297916412L222.46426666666665,103.93086216666482L222.48239999999998,115.7702893560583L222.6048,105.55315126072277L222.6456,109.94255640290001L223.04,82.99283125183801L223.07173333333336,117.43504106998444L223.2712,94.9563042684035L223.51146666666665,116.77045887166804L223.67013333333335,103.82196881554344L223.68826666666666,94.72343260591681L223.9648,114.91169084202161L224.40453333333332,73.33784905346958L224.5768,52.59423472664575L224.78533333333334,102.43077668276702L224.78986666666668,96.97731278159402L224.80346666666668,111.6030980240215L225.05733333333333,96.55001488598911L225.43813333333333,81.07399344444276L225.54693333333336,93.75995310870086L225.76906666666665,87.34265284104782L225.83253333333334,100.86735172705218L226.50346666666667,95.5899835174734L226.6394666666667,96.55934171243148L226.90693333333334,101.92458656701176L227.13813333333331,75.2725048498674L228.072,101.48877685720271L228.1128,97.11690653454174L228.20346666666666,93.87160014022481L228.344,108.08312286030163L228.35306666666668,104.15912346406417L228.96506666666667,105.18027592789043L229.1282666666667,106.66075289249422L229.32773333333333,124.30653945966202L229.59519999999998,109.2838914827867L229.64960000000002,129.6264378049157L230.16186666666664,112.3523546890779L230.3296,115.0735744563016L230.47013333333334,94.11274248903449L230.62879999999998,111.41974438320507L231.30880000000002,115.54053788835353L231.3496,108.10549952767113L231.47199999999998,113.05706056681548L231.608,117.97573176297274L231.76213333333334,112.03813612461092L231.96613333333335,116.7764533107931L232.0024,114.2316041209481L232.12933333333334,117.5975082137368L232.64159999999998,120.82126259803772L232.71413333333334,96.28951479088177L232.8184,106.34302832863548L232.9952,104.7582973133434L233.07226666666668,111.99474757367915L233.46213333333333,96.40276291153648L233.50293333333335,102.06445520574397L233.65706666666665,118.48823460665616L234.1784,103.39114080775869L234.3552,121.76312739198858L234.59093333333334,100.31989980827679L235.8965333333333,105.35247981548311L235.99173333333334,108.55668355118145L236.63093333333333,95.60818867249922L236.82586666666668,84.67249431393365L237.06613333333334,74.03495940295134L237.09786666666668,114.83907276933843L237.18853333333334,105.33451578833841L237.3064,105.02291105010293L237.7144,86.86983964659952L237.95013333333333,93.33949359980498L238.22213333333335,93.35454480214553L238.25386666666668,76.64703022349966L238.38533333333334,99.32302409952338L238.6256,112.9812596061013L238.64373333333333,71.02312749082392L238.7026666666667,118.3571140874516L238.76613333333333,87.29648649692537L238.87493333333333,111.67173266410829L238.92933333333332,121.54437617822128L239.0744,84.80867369608445L239.10613333333333,90.53371028466658L239.1696,104.89639607342808L239.68186666666665,86.87944618138401L239.73173333333332,78.50985884666444L239.75893333333332,109.57911399277775L239.9448,124.01758627458054L239.96293333333332,108.97135599093005L240.0264,104.48155002160506L240.13066666666668,98.13909102569927L240.61120000000003,105.32053037123248L240.80613333333332,87.93990248983557L241.00560000000002,122.00888492844322L241.0872,93.75002828511326L241.15973333333335,105.48284801569854L241.29573333333335,89.00067708709024L241.60853333333333,111.5715777873993L242.1752,94.80341472408989L242.37013333333334,101.18835080753674L242.3792,105.43895309621638L242.54693333333336,103.31948724660008L242.55146666666667,124.1452297297391L242.5968,102.80358932235025L242.63306666666668,115.25492191314697L242.7464,119.44022194905716L243.12266666666667,102.68606359308417L243.14533333333333,101.08440057797866L243.21333333333334,110.52671763029967L244.09279999999998,99.42376250570472L244.7184,105.93321702697061L245.67946666666666,105.85003755309366L246.03306666666666,109.28292697126216L246.27786666666665,99.7379376671531L246.39120000000003,120.40126123211601L246.9624,68.57814864678818L247.3296,83.50730169903149L247.55173333333335,103.01201061768965L247.60613333333333,96.27837950533088L247.69226666666665,106.88956878402017L247.95973333333333,106.63273865526374L248.4856,98.95713665268639L248.84373333333335,108.52278579365124L249.03413333333333,63.44072623686357L249.3288,113.94910834052347" style="fill: none;" fill="none"></path></g></g></g></g></g></g><g transform="translate(58, 178)" clip-path="url(#clip_1)"><clipPath id="clip_1"><rect width="272" height="22"></rect></clipPath><g><g><line x1="0" y1="0" x2="0" y2="5" style="visibility: inherit;" fill="rgb(0, 0, 0)" stroke="rgb(204, 204, 204)" stroke-width="1px"></line><line x1="22.666666666666664" y1="0" x2="22.666666666666664" y2="5" style="visibility: inherit;" fill="rgb(0, 0, 0)" stroke="rgb(204, 204, 204)" stroke-width="1px"></line><line x1="45.33333333333333" y1="0" x2="45.33333333333333" y2="5" style="visibility: inherit;" fill="rgb(0, 0, 0)" stroke="rgb(204, 204, 204)" stroke-width="1px"></line><line x1="68" y1="0" x2="68" y2="5" style="visibility: inherit;" fill="rgb(0, 0, 0)" stroke="rgb(204, 204, 204)" stroke-width="1px"></line><line x1="90.66666666666666" y1="0" x2="90.66666666666666" y2="5" style="visibility: inherit;" fill="rgb(0, 0, 0)" stroke="rgb(204, 204, 204)" stroke-width="1px"></line><line x1="113.33333333333334" y1="0" x2="113.33333333333334" y2="5" style="visibility: inherit;" fill="rgb(0, 0, 0)" stroke="rgb(204, 204, 204)" stroke-width="1px"></line><line x1="136" y1="0" x2="136" y2="5" style="visibility: inherit;" fill="rgb(0, 0, 0)" stroke="rgb(204, 204, 204)" stroke-width="1px"></line><line x1="158.66666666666669" y1="0" x2="158.66666666666669" y2="5" style="visibility: inherit;" fill="rgb(0, 0, 0)" stroke="rgb(204, 204, 204)" stroke-width="1px"></line><line x1="181.33333333333331" y1="0" x2="181.33333333333331" y2="5" style="visibility: inherit;" fill="rgb(0, 0, 0)" stroke="rgb(204, 204, 204)" stroke-width="1px"></line><line x1="204" y1="0" x2="204" y2="5" style="visibility: inherit;" fill="rgb(0, 0, 0)" stroke="rgb(204, 204, 204)" stroke-width="1px"></line><line x1="226.66666666666669" y1="0" x2="226.66666666666669" y2="5" style="visibility: inherit;" fill="rgb(0, 0, 0)" stroke="rgb(204, 204, 204)" stroke-width="1px"></line><line x1="249.33333333333331" y1="0" x2="249.33333333333331" y2="5" style="visibility: inherit;" fill="rgb(0, 0, 0)" stroke="rgb(204, 204, 204)" stroke-width="1px"></line><line x1="272" y1="0" x2="272" y2="5" style="visibility: inherit;" fill="rgb(0, 0, 0)" stroke="rgb(204, 204, 204)" stroke-width="1px"></line></g><g transform="translate(0, 8)"><text x="0" y="0" dx="0em" dy="0.95em" style="text-anchor: middle; visibility: hidden; font-family: &quot;Helvetica Neue&quot;, sans-serif; font-size: 12px; font-weight: 200;" fill="rgb(50, 49, 63)" stroke="none" stroke-width="1px">-5k</text><text x="22.666666666666664" y="0" dx="0em" dy="0.95em" style="text-anchor: middle; visibility: inherit; font-family: &quot;Helvetica Neue&quot;, sans-serif; font-size: 12px; font-weight: 200;" fill="rgb(50, 49, 63)" stroke="none" stroke-width="1px">0</text><text x="45.33333333333333" y="0" dx="0em" dy="0.95em" style="text-anchor: middle; visibility: hidden; font-family: &quot;Helvetica Neue&quot;, sans-serif; font-size: 12px; font-weight: 200;" fill="rgb(50, 49, 63)" stroke="none" stroke-width="1px">5k</text><text x="68" y="0" dx="0em" dy="0.95em" style="text-anchor: middle; visibility: inherit; font-family: &quot;Helvetica Neue&quot;, sans-serif; font-size: 12px; font-weight: 200;" fill="rgb(50, 49, 63)" stroke="none" stroke-width="1px">10k</text><text x="90.66666666666666" y="0" dx="0em" dy="0.95em" style="text-anchor: middle; visibility: hidden; font-family: &quot;Helvetica Neue&quot;, sans-serif; font-size: 12px; font-weight: 200;" fill="rgb(50, 49, 63)" stroke="none" stroke-width="1px">15k</text><text x="113.33333333333334" y="0" dx="0em" dy="0.95em" style="text-anchor: middle; visibility: inherit; font-family: &quot;Helvetica Neue&quot;, sans-serif; font-size: 12px; font-weight: 200;" fill="rgb(50, 49, 63)" stroke="none" stroke-width="1px">20k</text><text x="136" y="0" dx="0em" dy="0.95em" style="text-anchor: middle; visibility: hidden; font-family: &quot;Helvetica Neue&quot;, sans-serif; font-size: 12px; font-weight: 200;" fill="rgb(50, 49, 63)" stroke="none" stroke-width="1px">25k</text><text x="158.66666666666669" y="0" dx="0em" dy="0.95em" style="text-anchor: middle; visibility: inherit; font-family: &quot;Helvetica Neue&quot;, sans-serif; font-size: 12px; font-weight: 200;" fill="rgb(50, 49, 63)" stroke="none" stroke-width="1px">30k</text><text x="181.33333333333331" y="0" dx="0em" dy="0.95em" style="text-anchor: middle; visibility: hidden; font-family: &quot;Helvetica Neue&quot;, sans-serif; font-size: 12px; font-weight: 200;" fill="rgb(50, 49, 63)" stroke="none" stroke-width="1px">35k</text><text x="204" y="0" dx="0em" dy="0.95em" style="text-anchor: middle; visibility: inherit; font-family: &quot;Helvetica Neue&quot;, sans-serif; font-size: 12px; font-weight: 200;" fill="rgb(50, 49, 63)" stroke="none" stroke-width="1px">40k</text><text x="226.66666666666669" y="0" dx="0em" dy="0.95em" style="text-anchor: middle; visibility: hidden; font-family: &quot;Helvetica Neue&quot;, sans-serif; font-size: 12px; font-weight: 200;" fill="rgb(50, 49, 63)" stroke="none" stroke-width="1px">45k</text><text x="249.33333333333331" y="0" dx="0em" dy="0.95em" style="text-anchor: middle; visibility: inherit; font-family: &quot;Helvetica Neue&quot;, sans-serif; font-size: 12px; font-weight: 200;" fill="rgb(50, 49, 63)" stroke="none" stroke-width="1px">50k</text><text x="272" y="0" dx="0em" dy="0.95em" style="text-anchor: middle; visibility: hidden; font-family: &quot;Helvetica Neue&quot;, sans-serif; font-size: 12px; font-weight: 200;" fill="rgb(50, 49, 63)" stroke="none" stroke-width="1px">55k</text></g><line x1="0" y1="0" x2="272" y2="0" fill="rgb(0, 0, 0)" stroke="rgb(204, 204, 204)" stroke-width="1px"></line></g></g></g></g></svg>