<svg viewBox="0 0 330 200" xmlns="http://www.w3.org/2000/svg"><g><g><g><g><g><line x1="58" y1="178" x2="53" y2="178" style="visibility: inherit;" fill="rgb(0, 0, 0)" stroke="rgb(204, 204, 204)" stroke-width="1px"></line><line x1="58" y1="164.30769230769232" x2="53" y2="164.30769230769232" style="visibility: inherit;" fill="rgb(0, 0, 0)" stroke="rgb(204, 204, 204)" stroke-width="1px"></line><line x1="58" y1="150.6153846153846" x2="53" y2="150.6153846153846" style="visibility: inherit;" fill="rgb(0, 0, 0)" stroke="rgb(204, 204, 204)" stroke-width="1px"></line><line x1="58" y1="136.9230769230769" x2="53" y2="136.9230769230769" style="visibility: inherit;" fill="rgb(0, 0, 0)" stroke="rgb(204, 204, 204)" stroke-width="1px"></line><line x1="58" y1="123.23076923076923" x2="53" y2="123.23076923076923" style="visibility: inherit;" fill="rgb(0, 0, 0)" stroke="rgb(204, 204, 204)" stroke-width="1px"></line><line x1="58" y1="109.53846153846155" x2="53" y2="109.53846153846155" style="visibility: inherit;" fill="rgb(0, 0, 0)" stroke="rgb(204, 204, 204)" stroke-width="1px"></line><line x1="58" y1="95.84615384615385" x2="53" y2="95.84615384615385" style="visibility: inherit;" fill="rgb(0, 0, 0)" stroke="rgb(204, 204, 204)" stroke-width="1px"></line><line x1="58" y1="82.15384615384616" x2="53" y2="82.15384615384616" style="visibility: inherit;" fill="rgb(0, 0, 0)" stroke="rgb(204, 204, 204)" stroke-width="1px"></line><line x1="58" y1="68.46153846153848" x2="53" y2="68.46153846153848" style="visibility: inherit;" fill="rgb(0, 0, 0)" stroke="rgb(204, 204, 204)" stroke-width="1px"></line><line x1="58" y1="54.769230769230774" x2="53" y2="54.769230769230774" style="visibility: inherit;" fill="rgb(0, 0, 0)" stroke="rgb(204, 204, 204)" stroke-width="1px"></line><line x1="58" y1="41.076923076923094" x2="53" y2="41.076923076923094" style="visibility: inherit;" fill="rgb(0, 0, 0)" stroke="rgb(204, 204, 204)" stroke-width="1px"></line><line x1="58" y1="27.384615384615387" x2="53" y2="27.384615384615387" style="visibility: inherit;" fill="rgb(0, 0, 0)" stroke="rgb(204, 204, 204)" stroke-width="1px"></line><line x1="58" y1="13.69230769230768" x2="53" y2="13.69230769230768" style="visibility: inherit;" fill="rgb(0, 0, 0)" stroke="rgb(204, 204, 204)" stroke-width="1px"></line><line x1="58" y1="0" x2="53" y2="0" style="visibility: inherit;" fill="rgb(0, 0, 0)" stroke="rgb(204, 204, 204)" stroke-width="1px"></line></g><g transform="translate(48, 0)"><text x="0" y="178" dx="0em" dy="0.3em" style="text-anchor: end; visibility: hidden; font-family: &quot;Helvetica Neue&quot;, sans-serif; font-size: 12px; font-weight: 200;" fill="rgb(50, 49, 63)" stroke="none" stroke-width="1px">-0.1</text><text x="0" y="164.30769230769232" dx="0em" dy="0.3em" style="text-anchor: end; visibility: inherit; font-family: &quot;Helvetica Neue&quot;, sans-serif; font-size: 12px; font-weight: 200;" fill="rgb(50, 49, 63)" stroke="none" stroke-width="1px">0</text><text x="0" y="150.6153846153846" dx="0em" dy="0.3em" style="text-anchor: end; visibility: hidden; font-family: &quot;Helvetica Neue&quot;, sans-serif; font-size: 12px; font-weight: 200;" fill="rgb(50, 49, 63)" stroke="none" stroke-width="1px">0.1</text><text x="0" y="136.9230769230769" dx="0em" dy="0.3em" style="text-anchor: end; visibility: inherit; font-family: &quot;Helvetica Neue&quot;, sans-serif; font-size: 12px; font-weight: 200;" fill="rgb(50, 49, 63)" stroke="none" stroke-width="1px">0.2</text><text x="0" y="123.23076923076923" dx="0em" dy="0.3em" style="text-anchor: end; visibility: hidden; font-family: &quot;Helvetica Neue&quot;, sans-serif; font-size: 12px; font-weight: 200;" fill="rgb(50, 49, 63)" stroke="none" stroke-width="1px">0.3</text><text x="0" y="109.53846153846155" dx="0em" dy="0.3em" style="text-anchor: end; visibility: inherit; font-family: &quot;Helvetica Neue&quot;, sans-serif; font-size: 12px; font-weight: 200;" fill="rgb(50, 49, 63)" stroke="none" stroke-width="1px">0.4</text><text x="0" y="95.84615384615385" dx="0em" dy="0.3em" style="text-anchor: end; visibility: hidden; font-family: &quot;Helvetica Neue&quot;, sans-serif; font-size: 12px; font-weight: 200;" fill="rgb(50, 49, 63)" stroke="none" stroke-width="1px">0.5</text><text x="0" y="82.15384615384616" dx="0em" dy="0.3em" style="text-anchor: end; visibility: inherit; font-family: &quot;Helvetica Neue&quot;, sans-serif; font-size: 12px; font-weight: 200;" fill="rgb(50, 49, 63)" stroke="none" stroke-width="1px">0.6</text><text x="0" y="68.46153846153848" dx="0em" dy="0.3em" style="text-anchor: end; visibility: hidden; font-family: &quot;Helvetica Neue&quot;, sans-serif; font-size: 12px; font-weight: 200;" fill="rgb(50, 49, 63)" stroke="none" stroke-width="1px">0.7</text><text x="0" y="54.769230769230774" dx="0em" dy="0.3em" style="text-anchor: end; visibility: inherit; font-family: &quot;Helvetica Neue&quot;, sans-serif; font-size: 12px; font-weight: 200;" fill="rgb(50, 49, 63)" stroke="none" stroke-width="1px">0.8</text><text x="0" y="41.076923076923094" dx="0em" dy="0.3em" style="text-anchor: end; visibility: hidden; font-family: &quot;Helvetica Neue&quot;, sans-serif; font-size: 12px; font-weight: 200;" fill="rgb(50, 49, 63)" stroke="none" stroke-width="1px">0.9</text><text x="0" y="27.384615384615387" dx="0em" dy="0.3em" style="text-anchor: end; visibility: inherit; font-family: &quot;Helvetica Neue&quot;, sans-serif; font-size: 12px; font-weight: 200;" fill="rgb(50, 49, 63)" stroke="none" stroke-width="1px">1</text><text x="0" y="13.69230769230768" dx="0em" dy="0.3em" style="text-anchor: end; visibility: hidden; font-family: &quot;Helvetica Neue&quot;, sans-serif; font-size: 12px; font-weight: 200;" fill="rgb(50, 49, 63)" stroke="none" stroke-width="1px">1.1</text><text x="0" y="0" dx="0em" dy="0.3em" style="text-anchor: end; visibility: hidden; font-family: &quot;Helvetica Neue&quot;, sans-serif; font-size: 12px; font-weight: 200;" fill="rgb(50, 49, 63)" stroke="none" stroke-width="1px">1.2</text></g><line x1="58" y1="0" x2="58" y2="178" fill="rgb(0, 0, 0)" stroke="rgb(204, 204, 204)" stroke-width="1px"></line></g></g><g transform="translate(58, 0)" clip-path="url(#clip_0)"><clipPath id="clip_0"><rect width="272" height="178"></rect></clipPath><g><g><g><line x1="0" y1="0" x2="0" y2="178" fill="rgb(0, 0, 0)" stroke="rgb(60, 60, 60)" stroke-width="1px" opacity="0.25"></line><line x1="22.666666666666664" y1="0" x2="22.666666666666664" y2="178" fill="rgb(0, 0, 0)" stroke="rgb(60, 60, 60)" stroke-width="1px" opacity="0.25"></line><line x1="45.33333333333333" y1="0" x2="45.33333333333333" y2="178" fill="rgb(0, 0, 0)" stroke="rgb(60, 60, 60)" stroke-width="1px" opacity="0.25"></line><line x1="68" y1="0" x2="68" y2="178" fill="rgb(0, 0, 0)" stroke="rgb(60, 60, 60)" stroke-width="1px" opacity="0.25"></line><line x1="90.66666666666666" y1="0" x2="90.66666666666666" y2="178" fill="rgb(0, 0, 0)" stroke="rgb(60, 60, 60)" stroke-width="1px" opacity="0.25"></line><line x1="113.33333333333334" y1="0" x2="113.33333333333334" y2="178" fill="rgb(0, 0, 0)" stroke="rgb(60, 60, 60)" stroke-width="1px" opacity="0.25"></line><line x1="136" y1="0" x2="136" y2="178" fill="rgb(0, 0, 0)" stroke="rgb(60, 60, 60)" stroke-width="1px" opacity="0.25"></line><line x1="158.66666666666669" y1="0" x2="158.66666666666669" y2="178" fill="rgb(0, 0, 0)" stroke="rgb(60, 60, 60)" stroke-width="1px" opacity="0.25"></line><line x1="181.33333333333331" y1="0" x2="181.33333333333331" y2="178" fill="rgb(0, 0, 0)" stroke="rgb(60, 60, 60)" stroke-width="1px" opacity="0.25"></line><line x1="204" y1="0" x2="204" y2="178" fill="rgb(0, 0, 0)" stroke="rgb(60, 60, 60)" stroke-width="1px" opacity="0.25"></line><line x1="226.66666666666669" y1="0" x2="226.66666666666669" y2="178" fill="rgb(0, 0, 0)" stroke="rgb(60, 60, 60)" stroke-width="1px" opacity="0.25"></line><line x1="249.33333333333331" y1="0" x2="249.33333333333331" y2="178" fill="rgb(0, 0, 0)" stroke="rgb(60, 60, 60)" stroke-width="1px" opacity="0.25"></line><line x1="272" y1="0" x2="272" y2="178" fill="rgb(0, 0, 0)" stroke="rgb(60, 60, 60)" stroke-width="1px" opacity="0.25"></line></g><g><line x1="0" y1="178" x2="272" y2="178" fill="rgb(0, 0, 0)" stroke="rgb(60, 60, 60)" stroke-width="1px" opacity="0.25"></line><line x1="0" y1="164.30769230769232" x2="272" y2="164.30769230769232" fill="rgb(0, 0, 0)" stroke="rgb(60, 60, 60)" stroke-width="1px" opacity="0.25"></line><line x1="0" y1="150.6153846153846" x2="272" y2="150.6153846153846" fill="rgb(0, 0, 0)" stroke="rgb(60, 60, 60)" stroke-width="1px" opacity="0.25"></line><line x1="0" y1="136.9230769230769" x2="272" y2="136.9230769230769" fill="rgb(0, 0, 0)" stroke="rgb(60, 60, 60)" stroke-width="1px" opacity="0.25"></line><line x1="0" y1="123.23076923076923" x2="272" y2="123.23076923076923" fill="rgb(0, 0, 0)" stroke="rgb(60, 60, 60)" stroke-width="1px" opacity="0.25"></line><line x1="0" y1="109.53846153846155" x2="272" y2="109.53846153846155" fill="rgb(0, 0, 0)" stroke="rgb(60, 60, 60)" stroke-width="1px" opacity="0.25"></line><line x1="0" y1="95.84615384615385" x2="272" y2="95.84615384615385" fill="rgb(0, 0, 0)" stroke="rgb(60, 60, 60)" stroke-width="1px" opacity="0.25"></line><line x1="0" y1="82.15384615384616" x2="272" y2="82.15384615384616" fill="rgb(0, 0, 0)" stroke="rgb(60, 60, 60)" stroke-width="1px" opacity="0.25"></line><line x1="0" y1="68.46153846153848" x2="272" y2="68.46153846153848" fill="rgb(0, 0, 0)" stroke="rgb(60, 60, 60)" stroke-width="1px" opacity="0.25"></line><line x1="0" y1="54.769230769230774" x2="272" y2="54.769230769230774" fill="rgb(0, 0, 0)" stroke="rgb(60, 60, 60)" stroke-width="1px" opacity="0.25"></line><line x1="0" y1="41.076923076923094" x2="272" y2="41.076923076923094" fill="rgb(0, 0, 0)" stroke="rgb(60, 60, 60)" stroke-width="1px" opacity="0.25"></line><line x1="0" y1="27.384615384615387" x2="272" y2="27.384615384615387" fill="rgb(0, 0, 0)" stroke="rgb(60, 60, 60)" stroke-width="1px" opacity="0.25"></line><line x1="0" y1="13.69230769230768" x2="272" y2="13.69230769230768" fill="rgb(0, 0, 0)" stroke="rgb(60, 60, 60)" stroke-width="1px" opacity="0.25"></line><line x1="0" y1="0" x2="272" y2="0" fill="rgb(0, 0, 0)" stroke="rgb(60, 60, 60)" stroke-width="1px" opacity="0.25"></line></g></g></g><g><g><line x1="0" y1="164.30769230769232" x2="272" y2="164.30769230769232" fill="rgb(0, 0, 0)" stroke="rgb(153, 153, 153)" stroke-width="1.5px"></line></g></g><g><g><line x1="22.666666666666664" y1="0" x2="22.666666666666664" y2="178" fill="rgb(0, 0, 0)" stroke="rgb(153, 153, 153)" stroke-width="1.5px"></line></g></g><g><g><g><g><g><path stroke="rgb(255, 112, 67)" stroke-width="2px" d="M23.904266666666665,-8.821422608836173L24.062933333333334,0.12560092802715417L24.072,4.460075362743424L24.108266666666665,12.767460596028911L24.815466666666666,16.452081071990904L25.096533333333333,18.23517074204176L25.29146666666667,29.79049021209636L25.3232,26.032556667534152L25.5408,10.597762264482213L25.599733333333333,1.32753578009698L25.70853333333333,8.826060578873921L25.903466666666667,8.505944925371267L25.939733333333333,8.82780503157096L26.22533333333333,15.205202516773653L26.3024,5.434090827608543L26.3296,23.40889730883262L26.456533333333333,15.781297129828715L27.068533333333335,17.33969153674886L27.263466666666666,2.567899012387187L27.4992,-1.9018123533170979L27.671466666666664,1.3222706303096174L28.016,5.118765066504778L28.3832,5.282420190902059L28.63253333333333,21.144424077134943L28.646133333333335,22.17788688346701L28.709600000000002,25.484119711778987L28.727733333333333,27.409473754896396L28.945333333333334,35.91364824892236L28.977066666666666,23.122197841185738L29.17653333333333,29.69647757282371L29.31253333333333,28.493897582509504L29.570933333333333,28.056400311803998L29.7024,29.033478510549543L29.774933333333333,33.03028625892543L29.847466666666666,33.59172372577916L30.332533333333334,18.70093167269775L30.52746666666667,34.432392511617934L30.541066666666666,35.76397658136648L31.026133333333334,35.27121638961614L31.125866666666667,27.436829579711002L31.175733333333334,17.2560020815377L31.357066666666668,24.61367479341095L31.43413333333333,34.789260053637804L31.493066666666667,40.53460208968045L31.896533333333334,32.06974275896738L32.168533333333336,26.761456823282572L32.581066666666665,31.284591302834713L32.635466666666666,27.000120600016345L32.78053333333333,30.387879655883182L32.80773333333333,32.554474282248094L32.92106666666667,34.71134286402676L33.12506666666666,45.17295522902026L33.4968,45.582821895698885L33.70986666666667,27.663239274128358L33.78693333333334,34.72729902442393L33.796,20.545718732562932L33.818666666666665,29.270871999636768L33.932,39.42071523281618L33.93653333333333,40.873443852096784L33.99093333333333,30.314582533698314L34.0136,30.20934631053271L34.145066666666665,24.65578801315911L34.21306666666666,31.640578156922686L34.83866666666667,35.76121977846381L35.088,29.032753604397044L36.117066666666666,39.527369559301036L36.43893333333334,39.19220834082873L36.452533333333335,53.96350831361214L36.71546666666667,33.38204728705645L36.99653333333333,14.514021844523882L37.30933333333333,27.172680206535006L37.3728,41.35455350860681L37.38186666666667,54.209964960447394L37.386399999999995,47.44396690245816L37.64933333333333,34.574675904930785L38.44266666666667,21.928811162887854L39.068266666666666,31.835261061206467L39.077333333333335,40.93055577495443L39.303999999999995,35.4975024243702L39.62586666666667,41.08945504677581L39.8616,50.67127619802025L39.9568,54.005470933385936L39.98853333333333,55.87275697837826L40.4736,50.77097424482254L40.60053333333333,51.937230410940074L40.727466666666665,54.52114936094863L40.9632,52.57335335335273L41.24426666666667,52.2564492308978L41.68853333333333,38.53001607514565L41.82906666666666,41.304180472512854L41.851733333333335,43.293908242191605L42.237066666666664,52.728976528895586L42.24613333333333,43.519496065547145L42.61333333333334,40.27206027912226L43.0304,31.51846667495721L43.10746666666667,44.720665935725236L43.202666666666666,35.88066534137053L43.81013333333333,37.470503390366844L43.828266666666664,48.843203345947785L43.864533333333334,38.629842213491884L44.37226666666666,38.46270232898016L44.43573333333333,44.75265536286565L44.608000000000004,37.49271980639409L44.662400000000005,42.05680054715481L44.852799999999995,40.86243663099441L45.20186666666666,56.40978198063897L45.56,43.89260857589559L45.56906666666667,39.00547762317737L45.81386666666666,55.164824155130106L45.940799999999996,45.3974275952603L46.4168,45.13119775312833L46.897333333333336,40.61522870859275L46.9608,43.76442682230015L47.23733333333333,41.83499584440361L47.82213333333333,45.474435930972675L48.41146666666666,48.672687165179155L48.610933333333335,36.258952728560246L48.99626666666667,41.77872828756199L49.086933333333334,52.362304495613174L49.25013333333333,51.25738867470508L49.281866666666666,50.874592089898556L49.44506666666666,58.34664134590504L49.54026666666667,52.933015178402016L49.821333333333335,45.533250084284504L49.912,49.14779855104254L50.4152,49.88453161569538L50.46053333333333,40.88572728545725L50.77333333333333,41.908216727167996L50.83226666666667,45.216539269276694L50.85946666666667,54.8272167257459L50.9184,52.36364104360747L51.1768,61.03783116805339L51.28106666666667,51.850885997772764L51.5712,40.80007586558446L52.224000000000004,45.69276091769899L52.468799999999995,53.35231642957025L52.60026666666666,60.42521151096153L52.84506666666667,60.82250835458903L53.02186666666666,59.18358319057232L53.03546666666667,59.225836228265976L53.089866666666666,67.42101525536638L53.2304,76.79371214945913L53.73813333333334,69.98165943325364L54.245866666666664,65.09680585646191L54.363733333333336,63.17685403254687L54.88053333333334,60.61348265673186L54.9168,50.99756096209519L55.102666666666664,56.59600430785264L55.519733333333335,63.110415755217986L55.809866666666665,64.73035067230803L56.02746666666666,51.55803382985154L56.13173333333334,47.18425435822772L56.44,50.13332155256106L56.48533333333333,29.1348521222574L56.49893333333333,48.94478516591852L56.56693333333333,57.63428643234529L56.71653333333333,61.31131170233556L57.541599999999995,62.90023266284564L57.845333333333336,68.91546428713234L57.97226666666667,67.6834860630537L58.017599999999995,67.84805325288116L58.17626666666667,57.82029002585824L58.89253333333333,52.444296850527536L59.232533333333336,52.71573839274498L59.74933333333334,39.33312633126374L59.935199999999995,51.494759387402425L60.44746666666667,42.78366339693494L60.57893333333334,57.22725056977016L60.6016,65.24998613862913L60.6424,62.43316758444371L61.0504,63.32827034272414L61.064,65.09256874543412L61.190933333333334,65.6614302668598L61.236266666666666,47.313106144195075L61.65786666666666,43.113729226654726L61.812000000000005,47.00609793685297L62.084,42.889090198503766L62.9136,31.56510957740585L63.031466666666674,31.63857092152051L63.04506666666667,48.235470758020966L63.14026666666667,56.8558052787332L63.172000000000004,56.89192484580063L63.43493333333333,62.88587301690467L63.462133333333334,62.80446866399882L63.716,54.72103731183313L64.64533333333333,62.11697207805071L64.89920000000001,60.32536969456085L65.04426666666667,61.91649974325486L65.43866666666666,61.017192829668275L65.58826666666667,67.01391572297796L65.9464,62.73168671728804L65.97813333333333,29.373646605849814L66.03706666666666,44.818042911700445L66.30906666666667,56.745437980108846L66.44506666666666,60.63445927754614L66.54933333333334,49.42751380605077L66.63093333333333,54.5724078097864L67.28826666666667,63.82078539145L67.5784,72.09090045991132L68.26293333333334,71.6986238492148L68.38080000000001,75.3182184344256L69.2512,68.04185118030775L69.28293333333333,55.31138475985091L69.7952,58.5388480678246L69.80879999999999,58.12472569995474L69.904,65.49675218357197L70.17146666666667,59.19417405184238L70.3664,56.979355654684255L70.75173333333333,63.92942080957974L70.89226666666667,54.492176126893995L70.96480000000001,59.52954977333253L71.04186666666666,64.42250992175991L71.2232,65.51209343081334L71.43173333333333,65.06521391312575L71.43626666666667,69.7400982566631L71.536,69.69550836289585L71.69466666666666,63.656233233057804L71.81253333333333,71.03868363930462L71.85333333333332,56.30428864691707L72.08906666666667,63.94750231400943L72.10266666666666,20.637429358704992L72.2568,25.029613259566446L72.27493333333334,30.52740743163568L72.3792,32.54095779897776L72.40639999999999,34.80355760480168L72.41546666666666,39.13212637595382L72.62400000000001,35.69882107257686L72.99573333333333,50.06245851802734L73.08186666666667,53.444476782240685L73.12266666666666,65.42676795475559L73.43093333333334,62.616863232570154L73.44,63.77732330112845L73.712,55.98768687254625L74.4328,43.443350898340896L74.67306666666667,56.265357294105684L74.76373333333333,49.51803970793125L74.90426666666666,66.0408471061496L74.94506666666668,64.77061383925127L75.02213333333333,71.90857172609715L75.0992,71.8050557979334L75.47093333333332,81.76537424009148L75.5752,76.46014676179075L75.63866666666667,79.10564215270949L75.97413333333333,66.57479392140992L76.49093333333333,62.30620626781928L76.92613333333333,56.0499850962112L76.94879999999999,49.39421260859484L77.112,56.62155241350803L77.25253333333333,66.08776633626964L77.69226666666667,61.85178974267504L77.81013333333334,61.73828053059789L77.82826666666668,68.78628345754237L77.9008,40.77971582483528L78.0912,52.26363222751557L78.38133333333334,52.00955407270837L78.39493333333334,60.238630715625845L78.46746666666667,51.48506828028542L78.90266666666668,45.30589754142284L79.14293333333333,59.10684843056612L80.10853333333333,64.64343323776896L80.23546666666667,62.212955480404574L80.71600000000001,38.33836863924182L81.0424,47.451666217748254L81.32346666666666,61.12385042457173L81.67706666666668,60.851884221723026L81.75413333333333,66.9732924334808L81.87653333333333,44.65532007044942L81.97173333333333,45.70316140144746L82.02613333333333,52.87563588975296L82.09413333333333,60.75726454618322L82.35253333333334,64.322969615971L82.68346666666666,66.7633241115485L83.18213333333334,66.31030216803993L83.4224,53.33282110272968L83.44053333333333,53.48311676764882L83.8848,69.40199221482513L84.0752,71.89934553230646L84.3064,75.59703195270343L84.41066666666667,65.53252959173173L84.67813333333334,70.28622780166052L84.69173333333333,72.98411419987025L85.11786666666667,75.6387406161159L85.272,70.7381506645656L85.43066666666667,68.40789593591917L85.60746666666665,68.48272818297157L86.02453333333332,70.3451414739215L86.12426666666667,67.04939603923195L86.496,49.90999558592745L87.13520000000001,53.09033078015942L87.43440000000001,66.94486717572318L87.46613333333333,72.24602197063729L87.50693333333334,81.87193905935194L87.584,71.95606351225723L87.6656,76.98816784908175L87.93306666666666,63.18587047181103L88.15973333333334,65.93574864780923L88.37280000000001,75.78836322037452L88.6584,69.50504740692331L88.9984,69.11574203785703L89.0256,58.37794276898356L89.16159999999999,57.45580131765891L89.20240000000001,62.19043930605602L89.24773333333333,56.37477538542663L89.6648,63.89695849062723L89.70559999999999,65.18008423885125L89.72373333333333,68.54611250690563L89.8008,61.782858441479064L90.09093333333333,71.7978642515353L90.17706666666668,76.18777013795261L90.78906666666666,69.31663065905613L91.07466666666666,51.414059258799426L91.28320000000001,61.68289089133691L91.48266666666666,44.59196535215679L91.87253333333334,58.71507437461007L92.13546666666667,63.128847815730964L92.81093333333334,65.68726956091498L92.82,60.640531280475514L92.96506666666667,64.86653823691557L93.1056,69.26670433534721L93.37306666666666,74.69914023825574L94.02133333333333,78.71512366521249L94.13013333333333,79.7631297182315L94.17093333333334,73.68294728777296L94.42026666666668,68.65263524090297L95.10480000000001,62.2580077444845L95.16826666666667,61.916404664238314L95.63066666666667,59.950012992728674L95.72586666666666,56.56859882253026L96.3288,56.84039402123095L96.6552,60.09807401872847L96.75493333333334,65.49929598923063L96.832,74.41693685761874L97.04053333333334,64.87848043169114L97.19466666666666,66.7781459278473L97.48933333333333,61.418971012307665L97.852,71.95216473769935L98.19653333333333,65.10196605224488L98.35973333333332,74.7912203576418L98.86293333333333,72.88144779838636L98.86746666666666,71.48363337529973L99.02159999999999,65.5564208200219L99.08506666666668,72.26969620914807L99.27546666666666,73.42987279768639L100.03253333333333,71.86849501169006L100.17306666666667,66.52818355545249L100.3272,72.9577663039258L100.8168,70.95036084301738L100.9664,68.49766069972382L101.048,67.88436921294391L101.05706666666667,64.14589870807123L101.16586666666667,70.22545161562505L101.1704,71.8954412017077L101.184,78.90309090228965L101.27013333333333,73.06146430811386L101.4288,78.4590718773394L101.56933333333333,77.57956038785008L101.74613333333333,73.01547485376153L101.79146666666666,83.25444478035057L102.19493333333332,76.78450176400455L102.2584,69.76068595953753L102.38986666666666,71.12114814740126L102.42613333333333,77.21382789688944L102.5576,76.56223087650505L103.0064,74.39741488733915L104.0536,78.47977369460114L104.18053333333333,79.40297621333802L104.22133333333333,63.57121385793258L104.34826666666666,76.23991714696923L104.50693333333334,68.92723900178345L104.56133333333334,68.54239292845841L104.85146666666667,72.50018552027039L105.46346666666666,71.07196930741557L105.70826666666666,71.59572744004485L106.3112,73.13433324888268L106.31573333333333,69.48455825527537L106.9504,65.6093360919404L107.49893333333333,72.99968939378824L107.53066666666666,71.99299749118299L108.09733333333332,64.54466968177317L108.6096,69.08698724149798L108.69573333333334,66.5086253550001L108.82266666666666,68.43707058641786L108.9224,72.92792729394948L109.0176,67.22196409250458L109.32586666666666,70.45612283985756L109.56613333333333,78.22866463373819L109.82906666666666,83.7538480998183L110.02853333333334,86.68377976020648L110.99866666666668,75.80663303650626L111.08026666666666,81.90259185457398L111.18,76.81788691892726L111.2072,65.04987141773726L111.70133333333334,70.85199080096442L111.7648,63.892397281035954L111.81466666666667,58.89729397088597L112.064,66.38877516511496L112.11386666666667,74.39304440562744L112.14106666666666,83.18527938103797L112.40853333333334,82.09581712543486L112.53093333333334,83.93668827624218L112.63520000000001,67.4772056284979L112.95253333333334,67.9807865934402L113.05226666666667,68.55843943136836L113.20186666666667,75.76500034658393L113.31066666666668,73.86654422662244L113.492,78.36725760503944L113.5736,80.5615248226461L113.6008,74.93280474801882L113.6144,74.86780024582619L113.95893333333333,78.55869834477542L113.96346666666666,75.88106321697644L114.17653333333334,79.89882483861435L114.31706666666668,75.2002843050593L114.43946666666668,73.25652601246485L114.45306666666667,78.03602992984783L114.47573333333334,73.10555214029583L114.79759999999999,69.25850519329146L114.84746666666668,63.33757505887651L115.0696,71.99553196382557L115.328,70.69171057562482L115.53200000000001,77.0442383140169L115.71786666666667,80.4613902332597L115.7768,75.41848972443788L115.78133333333334,73.89028028298004L115.88106666666667,76.65487878479938L115.95360000000001,70.18312832596621L116.45679999999999,81.04150481200006L116.55199999999999,77.95851062686866L116.86479999999999,78.95387977195297L116.87840000000001,74.90814250791196L116.88293333333334,64.98471156042065L117.10053333333333,72.45466444247327L117.20933333333333,80.06826501515907L117.80773333333333,83.04462877720881L118.1704,70.42480027012357L118.22933333333333,79.01375761551137L118.51946666666666,87.45827415631008L118.81413333333334,79.19566599753972L118.91839999999999,76.66856746075575L119.2992,81.5417095911385L119.3128,87.25602790940017L119.33546666666666,89.71193484708289L119.6392,73.78298483590899L119.7208,83.89389436699247L120.0608,69.98647924585748L120.2376,64.84706457587706L120.95386666666667,82.36495399187352L121.14426666666667,79.00295753306358L121.14880000000001,77.35317919407473L121.44346666666667,72.6785202589422L121.47066666666666,77.89241552063258L121.58853333333333,74.5458313044262L121.68373333333334,81.13885056611473L121.71093333333334,78.1240491937103L122.4272,78.29621746776898L123.51066666666667,68.55991552164885L123.5696,76.79287175608577L123.72373333333333,72.65397154713949L123.83253333333333,78.54930831309863L123.896,81.48735047171537L124.02293333333334,71.87677665594464L124.53973333333333,75.55452797805447L124.6984,76.15777362582193L124.86613333333334,62.45619390724367L125.27866666666667,66.58257301501929L125.868,74.88769831569493L126.20800000000001,87.43897936621515L126.61600000000001,77.79552728782696L126.62960000000001,75.03950668530182L127.296,72.39975073476695L127.31413333333334,81.82915331080365L127.50906666666667,74.90095044971085L127.55893333333333,81.86271192450134L127.60426666666667,73.27615602550348L127.7584,77.46252216402692L127.80373333333333,63.574189714079665L127.9216,72.51012390711271L128.12560000000002,78.48168899470052L128.22986666666665,75.61973028554148L128.46106666666665,68.63380787705327L128.56986666666666,66.27641732745643L128.656,72.76853149775935L128.86906666666667,82.84146737932038L129.38133333333334,86.74872266257054L129.60346666666666,85.10628821989904L129.97066666666666,84.94865592490396L130.02053333333333,84.23021417132703L130.1112,75.93196396668688L130.44213333333332,82.38495850761083L130.70053333333334,77.10736567175917L131.1856,70.62522652110455L131.8248,78.91759330249425L132.0016,78.45464926903787L132.13306666666668,81.99512756296738L132.52746666666667,85.14633826914827L132.74506666666667,88.72083531276272L132.75413333333333,87.71560390542403L132.9264,88.05854017035591L133.03066666666666,89.22728062247019L133.35253333333333,91.0763069627249L133.99173333333331,90.60570450328099L134.28186666666667,91.47617527894333L134.72613333333334,97.18358148138249L134.7624,89.93577225437843L135.45146666666668,70.35518833701614L135.5512,73.60931379848373L135.70080000000002,82.22660970976604L136.03626666666668,56.18295277255244L136.21306666666666,66.60520739292507L136.60293333333334,62.047343957497645L136.93386666666666,70.18909294077807L137.0472,61.17357582619452L137.10613333333333,72.73028947941096L137.14693333333332,70.14489697420194L137.50506666666666,72.37622845862771L137.7725333333333,78.8226355208929L138.28933333333333,75.58500378233508L138.35733333333334,74.90371022762248L138.71546666666666,77.86322616973202L139.10986666666665,78.37709854598359L139.51333333333335,85.08470160283571L139.68106666666665,87.29325769348009L139.83973333333333,97.0663637922543L140.1752,91.13732369809146L140.7373333333333,85.35503152741576L140.83253333333334,87.21102943445014L140.87333333333333,85.86542768639875L140.94586666666666,85.05425043643126L141.23146666666668,84.39295859732441L141.236,69.09568088548767L141.29946666666666,76.93287044711573L141.85706666666667,83.9320214772773L141.90693333333334,89.47280069864337L142.36026666666666,91.51173729749601L142.664,89.29262793599507L143.57066666666668,84.3699995274756L144.1464,74.59456304926312L144.15093333333334,82.28071954013856L144.2824,82.57980908068573L144.29146666666665,70.1497932078578L144.74026666666668,70.00110813208632L145.42026666666666,78.00928175952197L145.7104,75.20167426447689L145.73760000000001,79.74563643306404L145.7648,79.61936584280494L145.78293333333335,89.05375137199132L145.7874666666667,85.20226631233288L146.30880000000002,87.2725308774524L146.55813333333336,91.76279910391096L147.1021333333333,85.59822202086991L147.356,82.30660469196718L147.80026666666666,86.4582008147296L147.8456,95.85046280674172L147.87733333333333,96.37486408503074L147.95893333333333,94.74759221928205L148.21733333333336,93.47139125381044L148.4168,86.83053925087071L148.80666666666667,79.4748175106829L149.2192,81.35287681868908L149.22826666666666,82.81764370637036L149.37333333333333,78.74100180574548L149.45493333333334,80.04679941278596L150.73786666666666,80.4559670800634L150.85573333333332,79.70129000356876L151.0552,86.39142640633953L151.30453333333332,88.27871878818661L151.5856,92.35534399398836L151.64453333333333,92.3085693531003L152.0616,99.38398919915221L152.19306666666665,93.71320970947734L152.36986666666667,96.04916595002206L153.6392,93.82700371629574L153.99733333333336,76.4488788047779L154.1152,84.96039657038693L154.2149333333333,89.83047587649143L154.30106666666669,88.96580892466102L154.4144,80.82897028263427L154.48693333333333,71.8699237732558L154.54133333333334,79.3214497555682L154.73626666666667,89.07717387062796L155.04453333333333,90.76957801047304L155.32559999999998,79.74255546781806L156.26853333333332,78.73975835721954L156.30026666666666,89.40668383756805L156.34106666666665,84.6752693184311L156.56773333333334,85.31672096007252L156.58133333333333,83.75937408153433L156.6765333333333,90.27716126867205L156.81706666666668,84.90969864806986L156.9032,84.78551822976834L157.5197333333333,86.7148452900902L157.88693333333333,87.01450140265192L157.89146666666667,89.85395548290398L158.04559999999998,77.95443131011405L158.66666666666669,67.12327182259094L158.68933333333334,66.43790402942307L158.8072,80.30294490325187L159.01573333333334,81.34544668109626L159.08373333333333,86.0482566960263L159.45546666666667,94.49888998131982L159.6504,94.77808492192554L159.76826666666668,96.85615409452917L159.95413333333332,94.34411582649196L160.14906666666667,88.67741643873809L160.74746666666667,93.6996482506823L160.7792,99.43140223136594L160.7973333333333,96.83632569709359L161.25973333333332,97.26769685176069L161.44106666666667,97.57481783011863L161.8672,101.02803068249547L161.93066666666667,95.05827262931538L162.01226666666668,100.07570963553977L162.2026666666667,93.85749082514006L163.43573333333333,83.64055518633067L163.676,80.51351231805965L164.21546666666666,82.66594469370399L165.04053333333334,85.81891700014947L165.20826666666667,93.46181996098446L165.6344,87.3503614758559L166.3552,91.65318501562525L166.47306666666665,96.43455999971282L166.6544,99.96553016463201L166.86293333333336,98.76876059397856L167.1576,94.91639964668677L167.18933333333334,96.58439781645328L167.22560000000001,92.42621673388301L167.44320000000002,98.171145767505L167.484,88.8135405089743L167.75146666666666,92.2565071334368L167.8104,88.17296701921427L168.4677333333333,87.30204835364188L168.52213333333336,82.4741824300365L168.67173333333332,89.29280094094733L168.86213333333333,83.6859750093128L169.1568,88.84702468759451L169.49226666666667,84.748659384712L169.70533333333333,88.41969647416875L170,84.85406052301583L170.13146666666665,84.79020269558676L170.1904,87.49467565371258L170.5032,74.44025965048607L170.5168,84.22823488422476L170.71173333333334,85.62402848106494L170.93386666666666,92.38223460643306L171.1877333333333,92.35603639679441L171.78613333333334,98.2097474444668L171.82240000000002,101.20965641559951L171.85413333333335,103.83584198937201L172.27573333333333,100.15774124063437L172.33013333333332,100.22007755846519L172.4208,96.42048334403204L172.9376,94.28871641856148L172.95573333333334,94.49004197025403L173.0781333333333,93.27799396090937L173.0872,94.0229373789072L173.4952,99.60618534184933L173.81253333333333,92.57505992947483L173.93493333333333,94.27637687219108L173.96666666666664,89.62550540410923L173.9802666666667,83.72344341615751L174.0936,90.1314016817253L174.71013333333332,84.82666955864033L175.12720000000002,74.77413286070768L175.15893333333335,82.04258759430266L175.56693333333334,87.91527761814494L175.60773333333333,97.7143895641508L175.66213333333334,97.65354139347284L175.74826666666667,100.56412891223444L175.82533333333333,105.13509541647589L176.07013333333333,104.65750179504451L176.12453333333332,83.37852916699018L176.23786666666666,93.29457495971724L176.4056,93.0168297706818L176.66853333333333,95.42012643375801L176.87706666666668,92.11618170108451L176.9632,86.1116759724611L176.99493333333334,84.29068470053271L177.20346666666666,94.64431679096641L177.4392,86.28383743304872L177.4528,94.14483251113397L177.61146666666667,98.86884323872196L178.20080000000002,88.55326692944394L178.43653333333333,82.59393458775058L178.44106666666667,92.60609398060022L178.53626666666668,89.68262039287674L178.7856,88.97851387291195L179.17999999999998,90.0261426976908L179.18453333333332,90.10351560459988L179.3568,94.5267923379421L179.51546666666667,83.33029869225501L179.55626666666666,93.81086213008689L179.73306666666664,96.17609319228835L179.9552,106.34103608443452L180.20453333333333,108.87870920808658L180.3496,103.56697183134467L180.78026666666665,104.42531480269709L181.46933333333334,105.84458233961786L181.69146666666668,103.99553418647382L181.85466666666667,98.34442767289269L182.13573333333332,96.29390652832197L182.4848,98.55138622345305L182.4984,98.79466743564748L182.84293333333335,93.11098576089505L182.93813333333333,92.8535497695253L182.9744,93.7886478764763L183.03333333333336,97.53311056273881L183.04240000000001,100.6920397936886L183.0696,103.2057786124239L183.51386666666667,100.79523873413876L183.52293333333333,95.67798884149175L183.91733333333335,96.43988506274276L183.93093333333334,98.6490198445316L184.0533333333333,87.77452516801517L184.82853333333333,90.65653238443947L184.86026666666666,99.18525227341716L185.15946666666665,100.11577368407876L185.18213333333333,99.9844869064288L185.65359999999998,90.7109878958691L185.73066666666665,99.48631486030072L186.03439999999998,94.25877623994143L186.12506666666667,94.53226545962318L186.61013333333335,93.23411084948326L186.84586666666667,95.18113479916796L186.91386666666668,98.66143494420744L186.98186666666666,95.66555696655028L187.0544,94.18364209261L187.11333333333332,97.65466782416011L187.272,99.91239433680423L187.3581333333333,91.63389719978105L187.38986666666665,94.64809631884864L188.44613333333334,94.75299537482172L188.71813333333333,101.77965311267286L188.85413333333335,101.01336702418236L188.94026666666667,94.18872031122667L189.34373333333335,95.34464799768782L189.52053333333333,98.84845969690348L189.53866666666667,94.67382219799438L189.57946666666666,98.0010666571145L189.60666666666668,98.44727993922555L189.72,99.67306536707632L189.9784,105.61808698615367L190.64026666666666,102.70709852811564L191.16613333333333,95.40964992673548L191.31573333333336,87.01863297948819L191.8098666666667,85.19263837093784L191.8370666666667,84.84110942144153L191.87786666666668,82.10743826286905L192.46266666666668,88.77399551205446L192.61679999999998,87.35209719003343L193.77733333333333,85.29912693115122L193.86346666666665,92.93378048702232L194.0584,84.82698026085541L194.37120000000002,89.57906592818426L195.34586666666667,97.3491182144423L195.80373333333333,98.82884753303901L196.05306666666667,103.78059166543451L196.12106666666665,104.21822412946865L196.43386666666666,104.47186377314769L196.588,102.15977240098648L196.92346666666666,100.58206171916574L196.99599999999998,102.2187341582988L197.04586666666668,104.81210978085622L197.2,106.95147528571015L197.56266666666667,104.21033430566588L197.8392,107.16565417056478L197.84373333333335,109.30144885524766L198.10666666666668,103.09403246892441L198.19733333333335,108.69279869028621L198.39226666666667,104.22753702822695L198.41493333333335,93.49401984302072L198.74133333333333,88.42762115457529L199.38053333333332,94.58661399491263L199.4848,101.99576264743587L199.48933333333335,107.5859538516721L200.10586666666669,103.10977391012436L200.54106666666667,107.47305300368852L200.80853333333332,105.41093780854199L200.85840000000002,105.40292942953343L202.14586666666665,99.25739321416116L202.33173333333335,97.03546007641069L202.64906666666667,101.30191756495277L202.776,102.19940391673939L203.00719999999998,101.89119201505453L203.44693333333333,103.64148038389844L203.58746666666664,104.28180515532921L203.61013333333335,102.38715991650545L203.68720000000002,102.92681948614525L203.91840000000002,98.87567686830175L204.09066666666666,98.84824477953396L205.01546666666667,99.06778769639585L205.34186666666668,105.00361260281936L205.81786666666667,102.36102546113737L206.21226666666666,106.77183509201L206.26666666666665,105.65752973386529L206.41173333333333,102.47647590681932L206.53866666666667,97.80632098738289L206.93306666666666,100.0768962580017L206.9784,97.87561142634736L207.00560000000002,99.00119520998369L207.02373333333333,97.89602812211918L207.1642666666667,104.84745536999323L207.17333333333335,101.22161529423339L207.23680000000002,100.22860148755406L207.264,101.52631777694594L207.59493333333333,96.52163346924235L208.71466666666666,104.85059798136676L209.11360000000002,105.20243245311848L209.23146666666668,100.00743372501205L209.6394666666667,97.00983686006826L209.76186666666666,100.91830797371402L210.0792,99.02543072512643L210.38746666666665,101.9942115104848L210.46,106.07333253455391L210.75920000000002,105.07462209106363L210.9768,100.93280553695395L211.04933333333335,102.99668285589898L211.1808,108.62750409082234L211.29413333333335,105.77570243911724L211.38026666666667,108.67488132948057L212.03306666666666,108.91370918908804L212.06933333333333,102.81957041725202L212.35946666666666,91.87298734993242L212.48186666666666,99.70969513019072L213.09386666666666,105.20034478191317L213.1256,99.17491849710811L213.2072,100.80032214653194L213.67413333333332,100.01868196208298L213.78293333333335,100.24010054259448L213.82826666666668,97.49958401453328L213.89173333333332,101.40117084792661L214.1728,104.730763879899L214.6034666666667,104.90911234604808L214.90266666666668,107.18937125730395L214.9616,108.19744729723493L215.10666666666668,109.13397433777841L215.18826666666666,103.00484945932831L215.2336,108.90232438366115L215.3288,101.44418582217808L215.82293333333334,99.42691010129448L216.14026666666666,101.19583885880432L216.58453333333333,101.31911250130835L217.11493333333334,101.65938484773936L217.28719999999998,102.4405650493625L217.4368,100.80226005482032L217.51386666666667,106.10672632628938L217.69066666666666,104.88999703346096L218.78773333333334,106.32401319129615L218.86026666666666,106.04663018867765L219.51306666666667,98.55351206078443L219.7488,102.25377536617154L219.94826666666665,101.11988592259317L220.10693333333333,98.43655918628389L220.24293333333333,98.95663995636215L220.35173333333336,102.91589615537809L220.46053333333333,105.23150385128679L220.4968,108.05715403794962L220.54666666666665,103.78224274191322L220.5512,105.17327811752365L220.82319999999999,105.1966889123045L220.9456,103.69665677207705L220.96373333333332,106.10825130442196L221.03173333333334,108.23130077687244L221.14960000000002,109.89213210315677L221.19946666666667,106.01796833809763L221.24933333333334,104.28384031230448L221.39893333333333,106.20787439615226L221.78426666666667,109.37534584280118L222.02453333333335,113.82553258391135L222.04266666666666,110.46414526108359L222.1016,110.47589472506822L222.46426666666665,115.38573944314945L222.48239999999998,110.17483626543566L222.6048,109.89847755230761L222.6456,104.32996941959165L223.04,104.93018092449763L223.07173333333336,107.41547319823566L223.2712,107.58291807538859L223.51146666666665,102.57118694230486L223.67013333333335,106.83473941141798L223.68826666666666,107.23843437795807L223.9648,106.71734910503929L224.40453333333332,102.37475689596707L224.5768,99.1875785664907L224.78533333333334,93.77245921992561L224.78986666666668,100.32742052460766L224.80346666666668,99.37985310343859L225.05733333333333,102.41295285685405L225.43813333333333,100.71198684601877L225.54693333333336,94.43555156917557L225.76906666666665,102.02334744696681L225.83253333333334,102.28746203392433L226.50346666666667,108.73087781462576L226.6394666666667,107.1655116701656L226.90693333333334,107.93655239306474L227.13813333333331,108.92618800122628L228.072,104.00934880877831L228.1128,98.08011759279732L228.20346666666666,103.51659288794322L228.344,104.01905288342184L228.35306666666668,102.53340090905982L228.96506666666667,104.31363453165369L229.1282666666667,101.21304994823558L229.32773333333333,102.879433807055L229.59519999999998,104.81152386537688L229.64960000000002,106.97684310396335L230.16186666666664,110.42403356696903L230.3296,110.5047615849305L230.47013333333334,103.37827343520419L230.62879999999998,102.71060035233297L231.30880000000002,110.13952890582259L231.3496,116.35465145941693L231.47199999999998,99.50965591342154L231.608,102.49794788953054L231.76213333333334,102.28226283208822L231.96613333333335,107.37649827334138L232.0024,110.78223826460062L232.12933333333334,103.31601915434518L232.64159999999998,108.69274358280886L232.71413333333334,109.47597370160041L232.8184,107.05685653914003L232.9952,101.92933501013282L233.07226666666668,106.50463508629163L233.46213333333333,103.71528537265321L233.50293333333335,103.48785581473855L233.65706666666665,103.68749799806179L234.1784,106.28756268034435L234.3552,102.96890988979465L234.59093333333334,105.16542277860572L235.8965333333333,105.36033906004204L235.99173333333334,103.97943314726439L236.63093333333333,106.72442898502658L236.82586666666668,107.80423094380784L237.06613333333334,114.90926155133226L237.09786666666668,107.955433193024L237.18853333333334,109.65790034538452L237.3064,111.74697677890947L237.7144,104.8778556089247L237.95013333333333,104.12964028719932L238.22213333333335,113.40489105896322L238.25386666666668,105.22087275922766L238.38533333333334,101.92839721680885L238.6256,100.045271140766L238.64373333333333,106.97920641218764L238.7026666666667,109.15662996397424L238.76613333333333,115.24480370628747L238.87493333333333,109.08276671048442L238.92933333333332,108.39550868565932L239.0744,106.2276866576471L239.10613333333333,111.37692506239128L239.1696,111.97144298398909L239.68186666666665,115.5317060564011L239.73173333333332,110.28922104735855L239.75893333333332,111.23007512766392L239.9448,110.55803720805164L239.96293333333332,105.87604012145012L240.0264,101.11786648983879L240.13066666666668,97.29964737416074L240.61120000000003,101.27042458615394L240.80613333333332,103.54494857059166L241.00560000000002,102.73681139875428L241.0872,98.76415303628112L241.15973333333335,108.91015834562872L241.29573333333335,106.21319949369597L241.60853333333333,108.14822736182239L242.1752,104.88177990930795L242.37013333333334,103.78949489603947L242.3792,103.03341894302764L242.54693333333336,107.87775252434014L242.55146666666667,112.26243853946887L242.5968,108.33214759319779L242.63306666666668,109.4758500949084L242.7464,112.87286714518075L243.12266666666667,103.19827467178018L243.14533333333333,105.634070164273L243.21333333333334,104.876974934891L244.09279999999998,104.65309686519626L244.7184,109.23459405887724L245.67946666666666,108.15144045602901L246.03306666666666,106.72966530179569L246.27786666666665,103.9082124771167L246.39120000000003,100.9277238324943L246.9624,99.78196270091543L247.3296,99.85983226514858L247.55173333333335,104.66586934769201L247.60613333333333,102.61766208968373L247.69226666666665,104.80302499023932L247.95973333333333,109.39372243594305L248.4856,101.65358614529339L248.84373333333335,105.2374021433258L249.03413333333333,110.48976542991872L249.3605333333333,107.80249359779734L249.39226666666667,109.18717377802561" style="fill: none;" fill="none"></path></g></g></g></g><g opacity="0.2"><g><g><g><path stroke="rgb(255, 112, 67)" stroke-width="2px" d="M23.42373333333333,-32.345183922694275L23.704800000000002,8.787327069502595L23.727466666666665,-12.34546617361218L23.904266666666665,-0.22925607974713103L24.062933333333334,13.410888158358063L24.072,10.92247365071222L24.108266666666665,25.183330022371734L24.815466666666666,21.966980860783508L25.096533333333333,20.906311988830566L25.29146666666667,47.10988657291119L25.3232,20.398306736579286L25.5408,-12.547897852384153L25.599733333333333,-12.575450236980714L25.70853333333333,20.07270545225876L25.903466666666667,8.025800704956055L25.939733333333333,9.310577539297242L26.22533333333333,24.771088893596925L26.3024,-9.222383792583742L26.3296,50.37089410194986L26.456533333333333,4.339951075040375L27.068533333333335,19.67727650128876L27.263466666666666,-19.58975197718695L27.4992,-8.60637253981372L27.671466666666664,6.1583921359135445L28.016,10.813504622532776L28.3832,5.527902823228089L28.63253333333333,44.93742675047656L28.646133333333335,23.728080969590394L28.709600000000002,30.443468717428345L28.727733333333333,30.297504736826966L28.945333333333334,48.66990977067215L28.977066666666666,3.935022427485535L29.17653333333333,39.55789710925174L29.31253333333333,26.69002760373627L29.570933333333333,27.400154407207765L29.7024,30.49909580670868L29.774933333333333,39.02549787668082L29.847466666666666,34.43387992565448L30.332533333333334,-3.635256400475157L30.52746666666667,58.02958376591023L30.541066666666666,37.76135268578162L31.026133333333334,34.53207610203668L31.125866666666667,15.68524936529306L31.175733333333334,1.9847608346205448L31.357066666666668,35.650183861072236L31.43413333333333,50.052637943854705L31.493066666666667,49.152615143702604L31.896533333333334,19.372453762934754L32.168533333333336,18.799027919769287L32.581066666666665,38.06929302215576L32.635466666666666,20.573414545792787L32.78053333333333,35.46951823968152L32.80773333333333,35.80436622179471L32.92106666666667,37.946645736694336L33.12506666666666,60.865373776509216L33.4968,46.197621895716765L33.70986666666667,0.7838653417733781L33.78693333333334,45.323388649867155L33.796,-0.7266517052283916L33.818666666666665,42.358601900247436L33.932,54.645480082585266L33.93653333333333,43.05253678101761L33.99093333333333,14.476290556100679L34.0136,30.0514919757843L34.145066666666665,16.325450567098756L34.21306666666666,42.11776337256799L34.83866666666667,41.94218221077554L35.088,18.940054343296936L36.117066666666666,55.26929349165698L36.43893333333334,38.68946651312021L36.452533333333335,76.12045827278726L36.71546666666667,2.5098557472229004L36.99653333333333,-13.788016319274902L37.30933333333333,46.160667749551635L37.3728,62.62736346171454L37.38186666666667,73.49308213820825L37.386399999999995,37.294969815474275L37.64933333333333,15.270739408639741L38.44266666666667,2.9600140498234566L39.068266666666666,46.694935908684386L39.077333333333335,54.57349784557637L39.303999999999995,27.347922398493836L39.62586666666667,49.477383980384246L39.8616,65.04400792488687L39.9568,59.00676303643448L39.98853333333333,58.67368604586676L40.4736,43.11830014448901L40.60053333333333,53.68661466011636L40.727466666666665,58.397027785961455L40.9632,49.65165934195886L41.24426666666667,51.78109304721539L41.68853333333333,17.940366341517517L41.82906666666666,45.46542706856363L41.851733333333335,46.27849989670975L42.237066666666664,66.88157895895151L42.24613333333333,29.705275370524475L42.61333333333334,35.400906599484955L43.0304,18.388076268709625L43.10746666666667,64.52396482687732L43.202666666666666,22.620664449838472L43.81013333333333,39.8552604638613L43.828266666666664,65.90225327931918L43.864533333333334,23.309800514808046L44.37226666666666,38.211992502212524L44.43573333333333,54.18758491369394L44.608000000000004,26.602816471686708L44.662400000000005,48.90292165829587L44.852799999999995,39.070890756753755L45.20186666666666,79.73080000510583L45.56,25.116848468780518L45.56906666666667,31.674781194100007L45.81386666666666,79.40384395305927L45.940799999999996,30.746332755455597L46.4168,44.73185298993039L46.897333333333336,33.84127514178934L46.9608,48.488223992861236L47.23733333333333,38.94084937755878L47.82213333333333,50.93359606082623L48.41146666666666,53.47006401648889L48.610933333333335,17.638351073631867L48.99626666666667,50.058391626064605L49.086933333333334,68.23766880768997L49.25013333333333,49.600014943342956L49.281866666666666,50.30039721268875L49.44506666666666,69.55471522991473L49.54026666666667,44.81257592714752L49.821333333333335,34.433602443108185L49.912,54.569621251179626L50.4152,50.98963121267465L50.46053333333333,27.387520790100098L50.77333333333333,43.44195088973413L50.83226666666667,50.17902308243973L50.85946666666667,69.2432329104497L50.9184,48.66827752039984L51.1768,74.04911635472226L51.28106666666667,38.07046824235181L51.5712,24.223860667302034L52.224000000000004,53.03178849587076L52.468799999999995,64.84164969737714L52.60026666666666,71.03455413304843L52.84506666666667,61.418453620030334L53.02186666666666,56.72519544454721L53.03546666666667,59.28921578480649L53.089866666666666,79.713783796017L53.2304,90.85275749059825L53.73813333333334,59.763580358945404L54.245866666666664,57.76952549127432L54.363733333333336,60.296926296674286L54.88053333333334,56.76842559300937L54.9168,36.57367842014017L55.102666666666664,64.9936693264888L55.519733333333335,72.88203292626602L55.809866666666665,67.16025304794312L56.02746666666666,31.79955856616678L56.13173333333334,40.623585150792024L56.44,54.556922344061064L56.48533333333333,-2.3628520231980588L56.49893333333333,78.6596847314101L56.56693333333333,70.66853833198547L56.71653333333333,66.82684960732095L57.541599999999995,65.28361410361072L57.845333333333336,77.9383117235624L57.97226666666667,65.83551872693576L58.017599999999995,68.09490403762231L58.17626666666667,42.77864518532388L58.89253333333333,44.38030708753146L59.232533333333336,53.122900706071135L59.74933333333334,19.25920823904184L59.935199999999995,69.73720897161044L60.44746666666667,29.717019411233736L60.57893333333334,78.89263132902292L60.6016,77.28408949191754L60.6424,58.20793975316562L61.0504,64.6709244801448L61.064,67.73901634949905L61.190933333333334,66.51472254899832L61.236266666666666,19.79061996019803L61.65786666666666,36.81466385034415L61.812000000000005,52.84465100215033L62.084,36.71357859097992L62.9136,14.579138645758974L63.031466666666674,31.748762937692476L63.04506666666667,73.1308205127716L63.14026666666667,69.78630705980154L63.172000000000004,56.94610419640176L63.43493333333333,71.87679527356076L63.462133333333334,62.682362134640044L63.716,42.595890283584595L64.64533333333333,73.2108742273771L64.89920000000001,57.63796611932608L65.04426666666667,64.30319481629593L65.43866666666666,59.66823245928839L65.58826666666667,76.0090000629425L65.9464,56.30834320875314L65.97813333333333,-20.663413561307493L66.03706666666666,67.98463737047638L66.30906666666667,74.63653058272143L66.44506666666666,66.46799122370209L66.54933333333334,32.61709559880768L66.63093333333333,62.2897488153898L67.28826666666667,77.69335176394537L67.5784,84.4960730626033L68.26293333333334,71.11020893317004L68.38080000000001,80.74761031224179L69.2512,57.12730029913095L69.28293333333333,36.21568512916565L69.7952,63.380043029785156L69.80879999999999,57.50354214814993L69.904,76.55479190899777L70.17146666666667,49.74030685424805L70.3664,53.65712805894705L70.75173333333333,74.35451854192294L70.89226666666667,40.33630910286536L70.96480000000001,67.08561024299036L71.04186666666666,71.76195014440097L71.2232,67.14646869439346L71.43173333333333,64.39489463659433L71.43626666666667,76.75242477196915L71.536,69.62862352224496L71.69466666666666,54.59732053830075L71.81253333333333,82.11235924867484L71.85333333333332,34.202696158335755L72.08906666666667,75.41232281464798L72.10266666666666,-44.327680074251646L72.2568,31.617889110858613L72.27493333333334,38.7740986897395L72.3792,35.561283349990845L72.40639999999999,38.1974573135376L72.41546666666666,45.62497953268198L72.62400000000001,30.548863117511445L72.99573333333333,71.607914686203L73.08186666666667,58.5175041785607L73.12266666666666,83.40020471352798L73.43093333333334,58.40200614929199L73.44,65.51801340396588L73.712,44.30323222967294L74.4328,24.626846937032838L74.67306666666667,75.49836688775284L74.76373333333333,39.39706332866962L74.90426666666666,90.82505820347714L74.94506666666668,62.86526393890381L75.02213333333333,82.61550855636597L75.0992,71.64978190568777L75.47093333333332,96.70585190332854L75.5752,68.50230554433969L75.63866666666667,83.07388523908762L75.97413333333333,47.77852157446054L76.49093333333333,55.90332478743335L76.92613333333333,46.66565333879913L76.94879999999999,39.41055387717026L77.112,67.46256212087778L77.25253333333333,80.28708722041205L77.69226666666667,55.4978248522832L77.81013333333334,61.568016712482176L77.82826666666668,79.35828784795908L77.9008,-1.2301356242253405L78.0912,69.48950683153595L78.38133333333334,51.62843684049753L78.39493333333334,72.58224568000207L78.46746666666667,38.35472462727472L78.90266666666668,36.03714143312894L79.14293333333333,79.80827476428107L80.10853333333333,72.94831044857318L80.23546666666667,58.567238844358L80.71600000000001,2.526488377497742L81.0424,61.121612585507904L81.32346666666666,81.63212673480695L81.67706666666668,60.44393491744995L81.75413333333333,76.15540475111743L81.87653333333333,11.178361525902375L81.97173333333333,47.27492339794455L82.02613333333333,63.63434762221118L82.09413333333333,72.57970753082864L82.35253333333334,69.67152722065265L82.68346666666666,70.42385585491473L83.18213333333334,65.6307692527771L83.4224,33.86659950476425L83.44053333333333,53.70856026502756L83.8848,93.28030538558961L84.0752,75.6453755085285L84.3064,81.14356158329892L84.41066666666667,50.4357760502742L84.67813333333334,77.41677511655368L84.69173333333333,77.03094379718488L85.11786666666667,79.6206802404844L85.272,63.38726573724014L85.43066666666667,64.91251384294952L85.60746666666665,68.59497655355014L86.02453333333332,73.1387614103464L86.12426666666667,62.10577788719766L86.496,24.200894905970642L87.13520000000001,57.860833571507385L87.43440000000001,87.72667176906879L87.46613333333333,80.19775416300848L87.50693333333334,96.3108146924239L87.584,57.08225019161519L87.6656,84.53632435431848L87.93306666666666,42.482424405904936L88.15973333333334,70.06056591180655L88.37280000000001,90.56728507922247L88.6584,60.08007368674646L88.9984,68.53178398425763L89.0256,42.27124386567337L89.16159999999999,56.072589140671965L89.20240000000001,69.2923962886517L89.24773333333333,47.651279504482574L89.6648,75.18023314842813L89.70559999999999,67.10477286118729L89.72373333333333,73.59515490898721L89.8008,51.6379773433392L90.09093333333333,86.82037296661966L90.17706666666668,82.77262896757861L90.78906666666666,59.009921440711395L91.07466666666666,24.5602021584144L91.28320000000001,77.08613834014307L91.48266666666666,18.955577043386597L91.87253333333334,79.89973790828998L92.13546666666667,69.74950797741229L92.81093333333334,69.52490217869098L92.82,53.070423859816344L92.96506666666667,71.20554867157571L93.1056,75.86695348299469L93.37306666666666,82.8477940926185L94.02133333333333,84.73909880564764L94.13013333333333,81.33513879776001L94.17093333333334,64.56267364208516L94.42026666666668,61.10716717059796L95.10480000000001,52.66606649985681L95.16826666666667,61.40400004386902L95.63066666666667,57.00042548546426L95.72586666666666,51.496477567232574L96.3288,57.24808681928195L96.6552,64.98459401497476L96.75493333333334,73.60112894498386L96.832,87.79339816020087L97.04053333333334,50.57079579279974L97.19466666666666,69.6276441720816L97.48933333333333,53.3802086389982L97.852,87.7519553257869L98.19653333333333,54.82666802406311L98.35973333333332,89.32510181573721L98.86293333333333,70.01678895950317L98.86746666666666,69.38691174066986L99.02159999999999,56.66560198710516L99.08506666666668,82.33960929283731L99.27546666666666,75.17013768049387L100.03253333333333,69.52642833269562L100.17306666666667,58.5177163710961L100.3272,82.60214042663574L100.8168,67.93925265165475L100.9664,64.81861048478348L101.048,66.96443198277402L101.05706666666667,58.53819295076224L101.16586666666667,79.34478097695572L101.1704,74.4004255808317L101.184,89.41456545316257L101.27013333333333,64.29902441685017L101.4288,86.5554832311777L101.56933333333333,76.26029315361612L101.74613333333333,66.16934655262875L101.79146666666666,98.6128996702341L102.19493333333332,67.07958723948553L102.2584,59.224962252836974L102.38986666666666,73.16184142919687L102.42613333333333,86.3528475211217L102.5576,75.5848353459285L103.0064,71.15019090359027L104.0536,84.60331190549411L104.18053333333333,80.78777999144336L104.22133333333333,39.8235703248244L104.34826666666666,95.24297208052415L104.50693333333334,57.95822178400482L104.56133333333334,67.96512381847089L104.85146666666667,78.43687440798834L105.46346666666666,68.92964498813336L105.70826666666666,72.3813646389888L106.3112,75.44224196213943L106.31573333333333,64.00989576486441L106.9504,59.796502846937926L107.49893333333333,84.08521934655997L107.53066666666666,70.48295963727512L108.09733333333332,53.372177967658416L108.6096,75.9004635810852L108.69573333333334,62.641082525253296L108.82266666666666,71.32973843354446L108.9224,79.66421235524692L109.0176,58.66301929033722L109.32586666666666,75.30736096088702L109.56613333333333,89.88747732455914L109.82906666666666,92.04162329893846L110.02853333333334,91.07867725078877L110.99866666666668,59.4909129509559L111.08026666666666,91.04653008167561L111.18,69.19082951545715L111.2072,47.39784816595224L111.70133333333334,79.5551698758052L111.7648,53.45300700114325L111.81466666666667,51.40463900566101L112.064,77.62599695645847L112.11386666666667,86.39944826639618L112.14106666666666,96.37363184415378L112.40853333333334,80.46162374203021L112.53093333333334,86.69799500245315L112.63520000000001,42.7879816568815L112.95253333333334,68.73615804085367L113.05226666666667,69.42491868826059L113.20186666666667,86.57484171940732L113.31066666666668,71.01886004668017L113.492,85.11832767266495L113.5736,83.85292564905609L113.6008,66.48972463607788L113.6144,74.77029349253729L113.95893333333333,84.09504549319928L113.96346666666666,71.86461052527795L114.17653333333334,85.92546727107123L114.31706666666668,68.15247350472671L114.43946666666668,70.34088857357318L114.45306666666667,85.2052858059223L114.47573333333334,65.70983545596783L114.79759999999999,63.48793477278491L114.84746666666668,54.45617985725403L115.0696,84.98246732124917L115.328,68.7359784933237L115.53200000000001,86.57302992160504L115.71786666666667,85.58711811212393L115.7768,67.85413896120514L115.78133333333334,71.59796612079327L115.88106666666667,80.80177653752841L115.95360000000001,60.47550263771646L116.45679999999999,97.32906954105084L116.55199999999999,73.33401934917157L116.86479999999999,80.44693348957944L116.87840000000001,68.83953661185046L116.88293333333334,50.09956513918365L117.10053333333333,83.65959376555224L117.20933333333333,91.48866587418777L117.80773333333333,87.50917442028339L118.1704,51.495057509495666L118.22933333333333,91.89719363359305L118.51946666666666,100.12504896750818L118.81413333333334,66.80175375938416L118.91839999999999,72.8779196555798L119.2992,88.85142278671265L119.3128,95.82750538679271L119.33546666666666,93.39579525360695L119.6392,49.88955981914816L119.7208,99.06025866361766L120.0608,49.125356564155L120.2376,57.13794257090643L120.95386666666667,108.64178811586821L121.14426666666667,73.95996284484863L121.14880000000001,74.87851168559149L121.44346666666667,65.66653185624344L121.47066666666666,85.71325841316812L121.58853333333333,69.52595498011664L121.68373333333334,91.02837945864752L121.71093333333334,73.60184713510367L122.4272,78.55446987885696L123.51066666666667,53.95546260246866L123.5696,89.14230610774115L123.72373333333333,66.44562123372006L123.83253333333333,87.39231346203732L123.896,85.8944137096405L124.02293333333334,57.46091593228854L124.53973333333333,81.07115496121921L124.6984,77.06264209747314L124.86613333333334,41.90382432937622L125.27866666666667,72.77214167668271L125.868,87.34538626670837L126.20800000000001,106.26590094199548L126.61600000000001,63.33034917024466L126.62960000000001,70.9054757815141L127.296,68.44011680896466L127.31413333333334,95.97325717485869L127.50906666666667,64.50864615807168L127.55893333333333,92.30535413668707L127.60426666666667,60.39632217700665L127.7584,83.7420713718121L127.80373333333333,42.74169103915875L127.9216,85.91402519666232L128.12560000000002,87.43903662608221L128.22986666666665,71.32679222180295L128.46106666666665,58.15492426432098L128.56986666666666,62.74033150306116L128.656,82.50670275321374L128.86906666666667,97.95087120166193L129.38133333333334,92.60960558744578L129.60346666666666,82.64263655589178L129.97066666666666,84.71220748241132L130.02053333333333,83.15255154096164L130.1112,63.484588659726654L130.44213333333332,92.06445031899673L130.70053333333334,69.19097641798166L131.1856,60.90201779512259L131.8248,91.35614347457887L132.0016,77.7602332188533L132.13306666666668,87.30584500386166L132.52746666666667,89.87315432841962L132.74506666666667,94.0825808781844L132.75413333333333,86.20775679441599L132.9264,88.57294456775372L133.03066666666666,90.98039130064159L133.35253333333333,93.84984647310698L133.99173333333331,89.8998008141151L134.28186666666667,92.78188144243681L134.72613333333334,105.74469078504123L134.7624,79.06405841387237L135.45146666666668,40.98431246097269L135.5512,78.49050199068512L135.70080000000002,95.15255357668951L136.03626666666668,17.117467366732086L136.21306666666666,82.23858932348398L136.60293333333334,55.210548804356506L136.93386666666666,82.40171641569873L137.0472,47.65030015431918L137.10613333333333,90.06535995923556L137.14693333333332,66.26680821638843L137.50506666666666,75.72322568526636L137.7725333333333,88.49224611429068L138.28933333333333,70.72855617449835L138.35733333333334,73.88176989555359L138.71546666666666,82.3025000828963L139.10986666666665,79.14790711036096L139.51333333333335,95.14610618811388L139.68106666666665,90.60609182944665L139.83973333333333,111.7260229404156L140.1752,82.24376355684723L140.7373333333333,76.68159327140222L140.83253333333334,89.9950262950017L140.87333333333333,83.84702506432168L140.94586666666666,83.83748456148001L141.23146666666668,83.40102083866412L141.236,46.149764317732604L141.29946666666666,88.68865478955783L141.85706666666667,94.43074802251964L141.90693333333334,97.78396953069247L142.36026666666666,94.57014219577496L142.664,85.96396389374368L143.57066666666668,76.98605691469635L144.1464,59.9314083319444L144.15093333333334,93.8099542764517L144.2824,83.0284433915065L144.29146666666665,51.50476939861592L144.74026666666668,69.7780805184291L145.42026666666666,90.02154220067538L145.7104,70.99026302190927L145.73760000000001,86.56157968594479L145.7648,79.42995995741626L145.78293333333335,103.2053296657709L145.7874666666667,79.42503872284524L146.30880000000002,90.3779277251317L146.55813333333336,98.49820144359883L147.1021333333333,76.35135639630832L147.356,77.3691786986131L147.80026666666666,92.6855949988732L147.8456,109.9388557947599L147.87733333333333,97.16146600246431L147.95893333333333,92.306684420659L148.21733333333336,91.55708980560304L148.4168,76.86926124646115L148.80666666666667,68.44123490040118L149.2192,84.16996578069833L149.22826666666666,85.01479403789227L149.37333333333333,72.62603895480817L149.45493333333334,82.00549582334665L150.73786666666666,81.06971858097958L150.85573333333332,78.56927438882681L151.0552,96.42663101049571L151.30453333333332,91.10965736095723L151.5856,98.47028180269095L151.64453333333333,92.23840739176825L152.0616,109.99711896823004L152.19306666666665,85.20704047496503L152.36986666666667,99.55310031083914L153.6392,90.49376036570624L153.99733333333336,50.38169143750119L154.1152,97.72767321880048L154.2149333333333,97.13559483564818L154.30106666666669,87.66880849691537L154.4144,68.62371231959418L154.48693333333333,58.43135400918814L154.54133333333334,90.49873872903677L154.73626666666667,103.71076004321759L155.04453333333333,93.30818422024068L155.32559999999998,63.2020216538356L156.26853333333332,77.23556269132175L156.30026666666666,105.4070720580908L156.34106666666665,77.57814753972568L156.56773333333334,86.27889842253467L156.58133333333333,81.42335376372705L156.6765333333333,100.05384204937863L156.81706666666668,76.85850471716662L156.9032,84.59924760231607L157.5197333333333,89.60883588057298L157.88693333333333,87.46398557149448L157.89146666666667,94.11313660328206L158.04559999999998,60.10514505092915L158.66666666666669,50.876532591306244L158.68933333333334,65.40985233967122L158.8072,101.10050621399513L159.01573333333334,82.90919934786285L159.08373333333333,93.10247171842136L159.45546666666667,107.1748399092601L159.6504,95.1968773328341L159.76826666666668,99.97325785343465L159.95413333333332,90.57605842443614L160.14906666666667,80.17736735710733L160.74746666666667,101.23299596859859L160.7792,108.02903320239142L160.7973333333333,92.94371089568506L161.25973333333332,97.91475358376137L161.44106666666667,98.03549929765555L161.8672,106.20784996106075L161.93066666666667,86.10363554954529L162.01226666666668,107.60186514487634L162.2026666666667,84.5301626095405L163.43573333333333,68.31515172811655L163.676,75.82294801565317L164.21546666666666,85.89459325717047L165.04053333333334,90.54837545981775L165.20826666666667,104.92617440223695L165.6344,78.18317374816309L166.3552,98.10742032527925L166.47306666666665,103.60662247584418L166.6544,105.26198541201079L166.86293333333336,96.97360623799838L167.1576,89.1378582257491L167.18933333333334,99.08639507110303L167.22560000000001,86.18894511002762L167.44320000000002,106.788539317938L167.484,74.77713262117828L167.75146666666666,97.42095707013058L167.8104,82.04765684788043L168.4677333333333,85.9956703552833L168.52213333333336,75.23238354462845L168.67173333333332,99.52072870731355L168.86213333333333,75.27573611186102L169.1568,96.5885992050171L169.49226666666667,78.60111143038824L169.70533333333333,93.92625210835385L170,79.5056065962865L170.13146666666665,84.69441595444314L170.1904,91.5513850909013L170.5032,54.85863564564633L170.5168,98.91019773483278L170.71173333333334,87.71771887632516L170.93386666666666,102.51954379448524L171.1877333333333,92.31673908233644L171.78613333333334,106.99031401597537L171.82240000000002,105.70951987229861L171.85413333333335,107.77512035003076L172.27573333333333,94.64059011752789L172.33013333333332,100.31358203521143L172.4208,90.72109202238231L172.9376,91.0910660303556L172.95573333333334,94.79203029779288L173.0781333333333,91.45992194689238L173.0872,95.14035250590399L173.4952,107.98105728626253L173.81253333333333,82.02837181091309L173.93493333333333,96.82835228626546L173.96666666666664,82.64919820198648L173.9802666666667,74.87035043422992L174.0936,99.74333908007696L174.71013333333332,76.86957137401288L175.12720000000002,59.695327813808746L175.15893333333335,92.94526969469511L175.56693333333334,96.72431265390837L175.60773333333333,112.41305748315959L175.66213333333334,97.56226913745587L175.74826666666667,104.93001019037688L175.82533333333333,111.99154517283807L176.07013333333333,103.94111136289744L176.12453333333332,51.46007022490869L176.23786666666666,108.16864364880783L176.4056,92.60021198712863L176.66853333333333,99.02507142837231L176.87706666666668,87.16026460207428L176.9632,77.104917379526L176.99493333333334,81.5591977926401L177.20346666666666,110.17476492661697L177.4392,73.74311839617218L177.4528,105.93632512826187L177.61146666666667,105.95485933010396L178.20080000000002,73.07990246552689L178.43653333333333,73.65493607521057L178.44106666666667,107.6243330698747L178.53626666666668,85.2974100112915L178.7856,87.92235409296478L179.17999999999998,91.59758593485907L179.18453333333332,90.21957496496348L179.3568,101.16170743795543L179.51546666666667,66.53555822372437L179.55626666666666,109.53170728683473L179.73306666666664,99.72393978559055L179.9552,121.58845042265379L180.20453333333333,112.68521889356467L180.3496,95.59936576623184L180.78026666666665,105.71282925972572L181.46933333333334,107.97348364499899L181.69146666666668,101.22196195675777L181.85466666666667,89.867767902521L182.13573333333332,93.21812481146593L182.4848,101.93760576614967L182.4984,99.15958925393912L182.84293333333335,84.58546324876639L182.93813333333333,92.46739578247072L182.9744,95.1912950369028L183.03333333333336,103.14980459213258L183.04240000000001,105.43043364011325L183.0696,106.97638684052689L183.51386666666667,97.17942891671109L183.52293333333333,88.00211400252124L183.91733333333335,97.58272939461929L183.93093333333334,101.96272201721486L184.0533333333333,71.46278315324051L184.82853333333333,94.97954320907594L184.86026666666666,111.97833210688371L185.15946666666665,101.51155580007114L185.18213333333333,99.78755673995386L185.65359999999998,76.80073938002954L185.73066666666665,112.64930530694815L186.03439999999998,86.41746830940247L186.12506666666667,94.94249928914584L186.61013333333335,91.28687893427336L186.84586666666667,98.10167072369504L186.91386666666668,103.88188516176665L186.98186666666666,91.17174000006456L187.0544,91.96076978169955L187.11333333333332,102.86120642148532L187.272,103.29898410577042L187.3581333333333,79.21615149424628L187.38986666666665,99.16939499745003L188.44613333333334,94.91034395878133L188.71813333333333,112.31963971944957L188.85413333333335,99.86393789144664L188.94026666666667,83.95175024179312L189.34373333333335,97.07853952737956L189.52053333333333,104.10417724572696L189.53866666666667,88.41186594963074L189.57946666666666,102.99193334579469L189.60666666666668,99.11659986239214L189.72,101.51174350885245L189.9784,114.53561941476968L190.64026666666666,98.3406158410586L191.16613333333333,84.46347702466525L191.31573333333336,74.43210755861725L191.8098666666667,82.45364645811227L191.8370666666667,84.31381599719708L191.87786666666668,78.00693152501034L192.46266666666668,98.77383138583258L192.61679999999998,85.21924970700192L193.77733333333333,82.21967154282791L193.86346666666665,104.38576082082896L194.0584,72.66677992160504L194.37120000000002,96.70719442917752L195.34586666666667,109.00419664382936L195.80373333333333,101.0484415109341L196.05306666666667,111.20820786402777L196.12106666666665,104.87467282551987L196.43386666666666,104.85232323866624L196.588,98.69163534274469L196.92346666666666,98.21549569643462L196.99599999999998,104.67374281699841L197.04586666666668,108.70217321469234L197.2,110.16052354299106L197.56266666666667,100.09862283559947L197.8392,111.59863396791312L197.84373333333335,112.50514088227199L198.10666666666668,93.78290788943951L198.19733333333335,117.09094802232889L198.39226666666667,97.52964453513806L198.41493333333335,77.39374406521137L198.74133333333333,80.82802312190717L199.38053333333332,103.82510325541864L199.4848,113.10948562622072L199.48933333333335,115.97124065802649L200.10586666666669,96.39550399780275L200.54106666666667,114.01797164403476L200.80853333333332,102.3177650158222L200.85840000000002,105.39091686102061L202.14586666666665,90.03908889110272L202.33173333333335,93.70256036978502L202.64906666666667,107.70160379776588L202.776,103.54563344441928L203.00719999999998,101.42887416252724L203.44693333333333,106.26691293716432L203.58746666666664,105.24229231247536L203.61013333333335,99.5451920582698L203.68720000000002,103.73630884060493L203.91840000000002,92.79896294153654L204.09066666666666,98.80709664638226L205.01546666666667,99.39710207168874L205.34186666666668,113.90734996245459L205.81786666666667,98.3971447486144L206.21226666666666,113.38804953831894L206.26666666666665,103.98607169664824L206.41173333333333,97.70489516625038L206.53866666666667,90.80108860822826L206.93306666666666,103.48275916392987L206.9784,94.57368417886588L207.00560000000002,100.68957088543819L207.02373333333333,96.23827749032242L207.1642666666667,115.27459624180428L207.17333333333335,95.78285518059364L207.23680000000002,98.73908077753508L207.264,103.47289221103375L207.59493333333333,89.01460700768692L208.71466666666666,117.34404474955339L209.11360000000002,105.73018416074606L209.23146666666668,92.21493563285242L209.6394666666667,92.5134415626526L209.76186666666666,106.78101464418265L210.0792,96.18611485224504L210.38746666666665,106.44738268852235L210.46,112.19201407065759L210.75920000000002,103.5765564258282L210.9768,94.72008070578943L211.04933333333335,106.09249883431656L211.1808,117.07373594320738L211.29413333333335,101.4979999615596L211.38026666666667,113.02364966502557L212.03306666666666,109.2719509784992L212.06933333333333,93.67836225949802L212.35946666666666,75.45311274895303L212.48186666666666,111.4647568005782L213.09386666666666,113.43631925949684L213.1256,90.13677906990053L213.2072,103.23842762066768L213.67413333333332,98.84622168540956L213.78293333333335,100.57222841336177L213.82826666666668,93.38880922244147L213.89173333333332,107.2535510980166L214.1728,109.72515342785762L214.6034666666667,105.17663504527167L214.90266666666668,110.60975962418777L214.9616,109.70956135713138L215.10666666666668,110.53876489859361L215.18826666666666,93.81116214165321L215.2336,117.74853677016038L215.3288,90.25697797995348L215.82293333333334,96.40099651996907L216.14026666666666,103.84923199506908L216.58453333333333,101.50402296506442L217.11493333333334,102.16979336738588L217.28719999999998,103.61233535179726L217.4368,98.34480256300706L217.51386666666667,114.06342573349293L217.69066666666666,103.06490309421834L218.78773333333334,108.47503742804895L218.86026666666666,105.63055568474991L219.51306666666667,87.31383486894461L219.7488,107.80417032425221L219.94826666666665,99.41905175722563L220.10693333333333,94.41156908181998L220.24293333333333,99.73676111147955L220.35173333333336,108.85478045390204L220.46053333333333,108.70491539514983L220.4968,112.29562931794388L220.54666666666665,97.36987579785861L220.5512,107.25983118093932L220.82319999999999,105.23180510447577L220.9456,101.4466085617359L220.96373333333332,109.72564310293932L221.03173333333334,111.41587498554817L221.14960000000002,112.3833790925833L221.19946666666667,100.20672269050893L221.24933333333334,101.68264827361475L221.39893333333333,109.09392552192395L221.78426666666667,114.12655301277455L222.02453333333335,120.5008126955766L222.04266666666666,105.42206427684198L222.1016,110.49351892104517L222.46426666666665,122.7505065202713L222.48239999999998,102.35848149886499L222.6048,109.48393948261555L222.6456,95.97720722051768L223.04,105.8304981818566L223.07173333333336,111.14341160884271L223.2712,107.83408539111798L223.51146666666665,95.0535902426793L223.67013333333335,113.23006811508766L223.68826666666666,107.84397682776819L223.9648,105.93572119566112L224.40453333333332,95.86086858235873L224.5768,94.4068110722762L224.78533333333334,85.64978020007794L224.78986666666668,110.15986248163077L224.80346666666668,97.95850197168498L225.05733333333333,106.96260248697722L225.43813333333333,98.16053782976591L225.54693333333336,85.0208986539107L225.76906666666665,113.40504126365369L225.83253333333334,102.68363391436064L226.50346666666667,118.39600148567787L226.6394666666667,104.81746245347537L226.90693333333334,109.09311347741348L227.13813333333331,110.41064141346858L228.072,96.6340900201064L228.1128,89.18627076882584L228.20346666666666,111.67130583066208L228.344,104.77274287663974L228.35306666666668,100.30492294751681L228.96506666666667,106.9839849655445L229.1282666666667,96.56217307310838L229.32773333333333,105.3790095952841L229.59519999999998,107.70965895285974L229.64960000000002,110.22482196184306L230.16186666666664,115.59481926147755L230.3296,110.62585361187276L230.47013333333334,92.68854121061473L230.62879999999998,101.70909072802618L231.30880000000002,121.28292173605699L231.3496,125.67733528980843L231.47199999999998,74.24216259442844L231.608,106.98038585369405L231.76213333333334,101.95873524592474L231.96613333333335,115.01785143522116L232.0024,115.8908482514895L232.12933333333334,92.11669048896204L232.64159999999998,116.75783022550436L232.71413333333334,110.65081887978775L232.8184,103.42818079544948L232.9952,94.238052716622L233.07226666666668,113.36758520052985L233.46213333333333,99.53126080219563L233.50293333333335,103.14671147786655L233.65706666666665,103.98696127304665L234.1784,110.18765970376822L234.3552,97.99093070397011L234.59093333333334,108.46019211182228L235.8965333333333,105.65271348219652L235.99173333333334,101.9080742780979L236.63093333333333,110.84192274166988L236.82586666666668,109.42393388197974L237.06613333333334,125.56680746261891L237.09786666666668,97.5246906555616L237.18853333333334,112.21160107392532L237.3064,114.88059142919687L237.7144,94.57417385394757L237.95013333333333,103.00731730461122L238.22213333333335,127.31776721660908L238.25386666666668,92.94484530962431L238.38533333333334,96.98968390318065L238.6256,97.22058202670172L238.64373333333333,117.3801093193201L238.7026666666667,112.42276529165416L238.76613333333333,124.37706431975732L238.87493333333333,99.83971121677986L238.92933333333332,107.36462164842166L239.0744,102.97595361562877L239.10613333333333,119.10078266950754L239.1696,112.86321986638583L239.68186666666665,120.87210066501912L239.73173333333332,102.42549353379471L239.75893333333332,112.64135624812201L239.9448,109.54998032863324L239.96293333333332,98.85304449154782L240.0264,93.98060604242178L240.13066666666668,91.57231870064369L240.61120000000003,107.2265904041437L240.80613333333332,106.95673454724826L241.00560000000002,101.52460564099826L241.0872,92.80516549257132L241.15973333333335,124.12916630965013L241.29573333333335,102.16776121579684L241.60853333333333,111.05076916401204L242.1752,99.98210873053625L242.37013333333334,102.1510673761368L242.3792,101.8993050135099L242.54693333333336,115.1442528963089L242.55146666666667,118.83946756216196L242.5968,102.43671117379115L242.63306666666668,111.19140384747432L242.7464,117.96839272058928L243.12266666666667,88.68638596167932L243.14533333333333,109.2877634030122L243.21333333333334,103.74133209081798L244.09279999999998,104.31727976065416L244.7184,116.1068398493987L245.67946666666666,106.52671005175665L246.03306666666666,104.59700257044572L246.27786666666665,99.67603324009823L246.39120000000003,96.45699086556068L246.9624,98.06332100354709L247.3296,99.97663661149832L247.55173333333335,111.87492497150716L247.60613333333333,99.54535120267136L247.69226666666665,108.08106934107268L247.95973333333333,116.27976860449866L248.4856,90.04338170931891L248.84373333333335,110.6131261403744L249.03413333333333,118.36831035980812L249.3605333333333,103.77158584961525L249.39226666666667,111.26419404836803" style="fill: none;" fill="none"></path></g></g></g></g></g></g><g transform="translate(58, 178)" clip-path="url(#clip_1)"><clipPath id="clip_1"><rect width="272" height="22"></rect></clipPath><g><g><line x1="0" y1="0" x2="0" y2="5" style="visibility: inherit;" fill="rgb(0, 0, 0)" stroke="rgb(204, 204, 204)" stroke-width="1px"></line><line x1="22.666666666666664" y1="0" x2="22.666666666666664" y2="5" style="visibility: inherit;" fill="rgb(0, 0, 0)" stroke="rgb(204, 204, 204)" stroke-width="1px"></line><line x1="45.33333333333333" y1="0" x2="45.33333333333333" y2="5" style="visibility: inherit;" fill="rgb(0, 0, 0)" stroke="rgb(204, 204, 204)" stroke-width="1px"></line><line x1="68" y1="0" x2="68" y2="5" style="visibility: inherit;" fill="rgb(0, 0, 0)" stroke="rgb(204, 204, 204)" stroke-width="1px"></line><line x1="90.66666666666666" y1="0" x2="90.66666666666666" y2="5" style="visibility: inherit;" fill="rgb(0, 0, 0)" stroke="rgb(204, 204, 204)" stroke-width="1px"></line><line x1="113.33333333333334" y1="0" x2="113.33333333333334" y2="5" style="visibility: inherit;" fill="rgb(0, 0, 0)" stroke="rgb(204, 204, 204)" stroke-width="1px"></line><line x1="136" y1="0" x2="136" y2="5" style="visibility: inherit;" fill="rgb(0, 0, 0)" stroke="rgb(204, 204, 204)" stroke-width="1px"></line><line x1="158.66666666666669" y1="0" x2="158.66666666666669" y2="5" style="visibility: inherit;" fill="rgb(0, 0, 0)" stroke="rgb(204, 204, 204)" stroke-width="1px"></line><line x1="181.33333333333331" y1="0" x2="181.33333333333331" y2="5" style="visibility: inherit;" fill="rgb(0, 0, 0)" stroke="rgb(204, 204, 204)" stroke-width="1px"></line><line x1="204" y1="0" x2="204" y2="5" style="visibility: inherit;" fill="rgb(0, 0, 0)" stroke="rgb(204, 204, 204)" stroke-width="1px"></line><line x1="226.66666666666669" y1="0" x2="226.66666666666669" y2="5" style="visibility: inherit;" fill="rgb(0, 0, 0)" stroke="rgb(204, 204, 204)" stroke-width="1px"></line><line x1="249.33333333333331" y1="0" x2="249.33333333333331" y2="5" style="visibility: inherit;" fill="rgb(0, 0, 0)" stroke="rgb(204, 204, 204)" stroke-width="1px"></line><line x1="272" y1="0" x2="272" y2="5" style="visibility: inherit;" fill="rgb(0, 0, 0)" stroke="rgb(204, 204, 204)" stroke-width="1px"></line></g><g transform="translate(0, 8)"><text x="0" y="0" dx="0em" dy="0.95em" style="text-anchor: middle; visibility: hidden; font-family: &quot;Helvetica Neue&quot;, sans-serif; font-size: 12px; font-weight: 200;" fill="rgb(50, 49, 63)" stroke="none" stroke-width="1px">-5k</text><text x="22.666666666666664" y="0" dx="0em" dy="0.95em" style="text-anchor: middle; visibility: inherit; font-family: &quot;Helvetica Neue&quot;, sans-serif; font-size: 12px; font-weight: 200;" fill="rgb(50, 49, 63)" stroke="none" stroke-width="1px">0</text><text x="45.33333333333333" y="0" dx="0em" dy="0.95em" style="text-anchor: middle; visibility: hidden; font-family: &quot;Helvetica Neue&quot;, sans-serif; font-size: 12px; font-weight: 200;" fill="rgb(50, 49, 63)" stroke="none" stroke-width="1px">5k</text><text x="68" y="0" dx="0em" dy="0.95em" style="text-anchor: middle; visibility: inherit; font-family: &quot;Helvetica Neue&quot;, sans-serif; font-size: 12px; font-weight: 200;" fill="rgb(50, 49, 63)" stroke="none" stroke-width="1px">10k</text><text x="90.66666666666666" y="0" dx="0em" dy="0.95em" style="text-anchor: middle; visibility: hidden; font-family: &quot;Helvetica Neue&quot;, sans-serif; font-size: 12px; font-weight: 200;" fill="rgb(50, 49, 63)" stroke="none" stroke-width="1px">15k</text><text x="113.33333333333334" y="0" dx="0em" dy="0.95em" style="text-anchor: middle; visibility: inherit; font-family: &quot;Helvetica Neue&quot;, sans-serif; font-size: 12px; font-weight: 200;" fill="rgb(50, 49, 63)" stroke="none" stroke-width="1px">20k</text><text x="136" y="0" dx="0em" dy="0.95em" style="text-anchor: middle; visibility: hidden; font-family: &quot;Helvetica Neue&quot;, sans-serif; font-size: 12px; font-weight: 200;" fill="rgb(50, 49, 63)" stroke="none" stroke-width="1px">25k</text><text x="158.66666666666669" y="0" dx="0em" dy="0.95em" style="text-anchor: middle; visibility: inherit; font-family: &quot;Helvetica Neue&quot;, sans-serif; font-size: 12px; font-weight: 200;" fill="rgb(50, 49, 63)" stroke="none" stroke-width="1px">30k</text><text x="181.33333333333331" y="0" dx="0em" dy="0.95em" style="text-anchor: middle; visibility: hidden; font-family: &quot;Helvetica Neue&quot;, sans-serif; font-size: 12px; font-weight: 200;" fill="rgb(50, 49, 63)" stroke="none" stroke-width="1px">35k</text><text x="204" y="0" dx="0em" dy="0.95em" style="text-anchor: middle; visibility: inherit; font-family: &quot;Helvetica Neue&quot;, sans-serif; font-size: 12px; font-weight: 200;" fill="rgb(50, 49, 63)" stroke="none" stroke-width="1px">40k</text><text x="226.66666666666669" y="0" dx="0em" dy="0.95em" style="text-anchor: middle; visibility: hidden; font-family: &quot;Helvetica Neue&quot;, sans-serif; font-size: 12px; font-weight: 200;" fill="rgb(50, 49, 63)" stroke="none" stroke-width="1px">45k</text><text x="249.33333333333331" y="0" dx="0em" dy="0.95em" style="text-anchor: middle; visibility: inherit; font-family: &quot;Helvetica Neue&quot;, sans-serif; font-size: 12px; font-weight: 200;" fill="rgb(50, 49, 63)" stroke="none" stroke-width="1px">50k</text><text x="272" y="0" dx="0em" dy="0.95em" style="text-anchor: middle; visibility: hidden; font-family: &quot;Helvetica Neue&quot;, sans-serif; font-size: 12px; font-weight: 200;" fill="rgb(50, 49, 63)" stroke="none" stroke-width="1px">55k</text></g><line x1="0" y1="0" x2="272" y2="0" fill="rgb(0, 0, 0)" stroke="rgb(204, 204, 204)" stroke-width="1px"></line></g></g></g></g></svg>